<mxfile host="app.diagrams.net" agent="Mozilla/5.0 (Windows NT 10.0; Win64; x64) AppleWebKit/537.36 (KHTML, like Gecko) Chrome/131.0.0.0 Safari/537.36 Edg/131.0.0.0" version="26.0.1">
  <diagram name="Halaman-1" id="Rb2G4QblMPteoJfj2bzj">
    <mxGraphModel dx="1541" dy="1619" grid="1" gridSize="10" guides="1" tooltips="1" connect="1" arrows="1" fold="1" page="1" pageScale="1" pageWidth="827" pageHeight="1169" math="0" shadow="0">
      <root>
        <mxCell id="0" />
        <mxCell id="1" parent="0" />
        <UserObject label="" plantUmlData="{&#xa;  &quot;data&quot;: &quot;@startmindmap\n* Logika Fuzzy\n** Tsukamoto\n*** Konsekuen: Fungsi Linear atau Monoton\n*** Defuzzifikasi: Weighted Average\n*** Keunggulan:\n**** Perhitungan sederhana\n**** Cocok untuk sistem kontrol\n*** Kelemahan:\n**** Kurang fleksibel untuk ketidakpastian\n**** Membutuhkan fungsi konsekuen yang tepat\n** Mamdani\n*** Konsekuen: Himpunan Fuzzy\n*** Defuzzifikasi: Centroid\n*** Keunggulan:\n**** Fleksibel untuk kompleksitas aturan\n*** Kelemahan:\n**** Proses komputasi kompleks\n* Evaluasi SVM\n** Akurasi: Persentase prediksi benar\n** Presisi: Proporsi prediksi positif yang benar\n** Recall: Proporsi data positif yang terdeteksi\n** F1-Score:\n*** Rata-rata harmonis antara presisi dan recall\n*** Berguna untuk dataset tidak seimbang\n* ANN vs RNN\n** ANN Feedforward\n*** Informasi bergerak satu arah\n*** Cocok untuk data statis (contoh: klasifikasi gambar)\n** RNN\n*** Memiliki \&quot;memori\&quot; untuk data sekuensial\n*** Cocok untuk NLP, prediksi deret waktu, dll.\n* Prediksi Harga Rumah dengan ANN\n** Input\n*** Lokasi\n**** Luas wilayah, jarak ke pusat kota\n*** Fisik rumah\n**** Luas bangunan, jumlah kamar, usia bangunan\n*** Pasar\n**** Harga rata-rata di area\n** Arsitektur\n*** Lapisan Input: Sesuai jumlah fitur\n*** Hidden Layer 1: 128 neuron, aktivasi ReLU\n*** Hidden Layer 2: 64 neuron, aktivasi ReLU\n*** Output: 1 neuron, aktivasi linear\n@endmindmap\n&quot;,&#xa;  &quot;format&quot;: &quot;svg&quot;&#xa;}" id="EirJ000sOLTqfTJIidtu-1">
          <mxCell style="shape=image;noLabel=1;verticalAlign=top;aspect=fixed;imageAspect=0;image=data:image/svg+xml,PD94bWwgdmVyc2lvbj0iMS4wIiBlbmNvZGluZz0idXMtYXNjaWkiIHN0YW5kYWxvbmU9Im5vIj8+PHN2ZyB4bWxucz0iaHR0cDovL3d3dy53My5vcmcvMjAwMC9zdmciIHhtbG5zOnhsaW5rPSJodHRwOi8vd3d3LnczLm9yZy8xOTk5L3hsaW5rIiBjb250ZW50U3R5bGVUeXBlPSJ0ZXh0L2NzcyIgaGVpZ2h0PSIxNDUxcHgiIHByZXNlcnZlQXNwZWN0UmF0aW89Im5vbmUiIHN0eWxlPSJ3aWR0aDo4NzlweDtoZWlnaHQ6MTQ1MXB4O2JhY2tncm91bmQ6I0ZGRkZGRjsiIHZlcnNpb249IjEuMSIgdmlld0JveD0iMCAwIDg3OSAxNDUxIiB3aWR0aD0iODc5cHgiIHpvb21BbmRQYW49Im1hZ25pZnkiPjxkZWZzLz48Zz48cmVjdCBmaWxsPSIjRjFGMUYxIiBoZWlnaHQ9IjM0Ljk4NDQiIHJ4PSIxMi41IiByeT0iMTIuNSIgc3R5bGU9InN0cm9rZTojMTgxODE4O3N0cm9rZS13aWR0aDoxLjU7IiB3aWR0aD0iMTA0IiB4PSIxMCIgeT0iMjY3LjQyOTciLz48dGV4dCBmaWxsPSIjMDAwMDAwIiBmb250LWZhbWlseT0ic2Fucy1zZXJpZiIgZm9udC1zaXplPSIxNCIgbGVuZ3RoQWRqdXN0PSJzcGFjaW5nIiB0ZXh0TGVuZ3RoPSI4NCIgeD0iMjAiIHk9IjI5MC42NjQxIj5Mb2dpa2EgRnV6enk8L3RleHQ+PHJlY3QgZmlsbD0iI0YxRjFGMSIgaGVpZ2h0PSIzNC45ODQ0IiByeD0iMTIuNSIgcnk9IjEyLjUiIHN0eWxlPSJzdHJva2U6IzE4MTgxODtzdHJva2Utd2lkdGg6MS41OyIgd2lkdGg9Ijg0IiB4PSIxNjQiIHk9IjE1Ny40NjA5Ii8+PHRleHQgZmlsbD0iIzAwMDAwMCIgZm9udC1mYW1pbHk9InNhbnMtc2VyaWYiIGZvbnQtc2l6ZT0iMTQiIGxlbmd0aEFkanVzdD0ic3BhY2luZyIgdGV4dExlbmd0aD0iNjQiIHg9IjE3NCIgeT0iMTgwLjY5NTMiPlRzdWthbW90bzwvdGV4dD48cmVjdCBmaWxsPSIjRjFGMUYxIiBoZWlnaHQ9IjM0Ljk4NDQiIHJ4PSIxMi41IiByeT0iMTIuNSIgc3R5bGU9InN0cm9rZTojMTgxODE4O3N0cm9rZS13aWR0aDoxLjU7IiB3aWR0aD0iMjc5IiB4PSIyOTgiIHk9IjIwIi8+PHRleHQgZmlsbD0iIzAwMDAwMCIgZm9udC1mYW1pbHk9InNhbnMtc2VyaWYiIGZvbnQtc2l6ZT0iMTQiIGxlbmd0aEFkanVzdD0ic3BhY2luZyIgdGV4dExlbmd0aD0iMjU5IiB4PSIzMDgiIHk9IjQzLjIzNDQiPktvbnNla3VlbjogRnVuZ3NpIExpbmVhciBhdGF1IE1vbm90b248L3RleHQ+PHBhdGggZD0iTTI0OCwxNzQuOTUzMSBMMjU4LDE3NC45NTMxIEMyNzMsMTc0Ljk1MzEgMjczLDM3LjQ5MjIgMjg4LDM3LjQ5MjIgTDI5OCwzNy40OTIyICIgZmlsbD0ibm9uZSIgc3R5bGU9InN0cm9rZTojMTgxODE4O3N0cm9rZS13aWR0aDoxLjA7Ii8+PHJlY3QgZmlsbD0iI0YxRjFGMSIgaGVpZ2h0PSIzNC45ODQ0IiByeD0iMTIuNSIgcnk9IjEyLjUiIHN0eWxlPSJzdHJva2U6IzE4MTgxODtzdHJva2Utd2lkdGg6MS41OyIgd2lkdGg9IjIzNyIgeD0iMjk4IiB5PSI3NC45ODQ0Ii8+PHRleHQgZmlsbD0iIzAwMDAwMCIgZm9udC1mYW1pbHk9InNhbnMtc2VyaWYiIGZvbnQtc2l6ZT0iMTQiIGxlbmd0aEFkanVzdD0ic3BhY2luZyIgdGV4dExlbmd0aD0iMjE3IiB4PSIzMDgiIHk9Ijk4LjIxODgiPkRlZnV6emlmaWthc2k6IFdlaWdodGVkIEF2ZXJhZ2U8L3RleHQ+PHBhdGggZD0iTTI0OCwxNzQuOTUzMSBMMjU4LDE3NC45NTMxIEMyNzMsMTc0Ljk1MzEgMjczLDkyLjQ3NjYgMjg4LDkyLjQ3NjYgTDI5OCw5Mi40NzY2ICIgZmlsbD0ibm9uZSIgc3R5bGU9InN0cm9rZTojMTgxODE4O3N0cm9rZS13aWR0aDoxLjA7Ii8+PHJlY3QgZmlsbD0iI0YxRjFGMSIgaGVpZ2h0PSIzNC45ODQ0IiByeD0iMTIuNSIgcnk9IjEyLjUiIHN0eWxlPSJzdHJva2U6IzE4MTgxODtzdHJva2Utd2lkdGg6MS41OyIgd2lkdGg9Ijk3IiB4PSIyOTgiIHk9IjE1Ny40NjA5Ii8+PHRleHQgZmlsbD0iIzAwMDAwMCIgZm9udC1mYW1pbHk9InNhbnMtc2VyaWYiIGZvbnQtc2l6ZT0iMTQiIGxlbmd0aEFkanVzdD0ic3BhY2luZyIgdGV4dExlbmd0aD0iNzciIHg9IjMwOCIgeT0iMTgwLjY5NTMiPktldW5nZ3VsYW46PC90ZXh0PjxyZWN0IGZpbGw9IiNGMUYxRjEiIGhlaWdodD0iMzQuOTg0NCIgcng9IjEyLjUiIHJ5PSIxMi41IiBzdHlsZT0ic3Ryb2tlOiMxODE4MTg7c3Ryb2tlLXdpZHRoOjEuNTsiIHdpZHRoPSIxNjciIHg9IjQ0NSIgeT0iMTI5Ljk2ODgiLz48dGV4dCBmaWxsPSIjMDAwMDAwIiBmb250LWZhbWlseT0ic2Fucy1zZXJpZiIgZm9udC1zaXplPSIxNCIgbGVuZ3RoQWRqdXN0PSJzcGFjaW5nIiB0ZXh0TGVuZ3RoPSIxNDciIHg9IjQ1NSIgeT0iMTUzLjIwMzEiPlBlcmhpdHVuZ2FuIHNlZGVyaGFuYTwvdGV4dD48cGF0aCBkPSJNMzk1LDE3NC45NTMxIEw0MDUsMTc0Ljk1MzEgQzQyMCwxNzQuOTUzMSA0MjAsMTQ3LjQ2MDkgNDM1LDE0Ny40NjA5IEw0NDUsMTQ3LjQ2MDkgIiBmaWxsPSJub25lIiBzdHlsZT0ic3Ryb2tlOiMxODE4MTg7c3Ryb2tlLXdpZHRoOjEuMDsiLz48cmVjdCBmaWxsPSIjRjFGMUYxIiBoZWlnaHQ9IjM0Ljk4NDQiIHJ4PSIxMi41IiByeT0iMTIuNSIgc3R5bGU9InN0cm9rZTojMTgxODE4O3N0cm9rZS13aWR0aDoxLjU7IiB3aWR0aD0iMjAzIiB4PSI0NDUiIHk9IjE4NC45NTMxIi8+PHRleHQgZmlsbD0iIzAwMDAwMCIgZm9udC1mYW1pbHk9InNhbnMtc2VyaWYiIGZvbnQtc2l6ZT0iMTQiIGxlbmd0aEFkanVzdD0ic3BhY2luZyIgdGV4dExlbmd0aD0iMTgzIiB4PSI0NTUiIHk9IjIwOC4xODc1Ij5Db2NvayB1bnR1ayBzaXN0ZW0ga29udHJvbDwvdGV4dD48cGF0aCBkPSJNMzk1LDE3NC45NTMxIEw0MDUsMTc0Ljk1MzEgQzQyMCwxNzQuOTUzMSA0MjAsMjAyLjQ0NTMgNDM1LDIwMi40NDUzIEw0NDUsMjAyLjQ0NTMgIiBmaWxsPSJub25lIiBzdHlsZT0ic3Ryb2tlOiMxODE4MTg7c3Ryb2tlLXdpZHRoOjEuMDsiLz48cGF0aCBkPSJNMjQ4LDE3NC45NTMxIEwyNTgsMTc0Ljk1MzEgQzI3MywxNzQuOTUzMSAyNzMsMTc0Ljk1MzEgMjg4LDE3NC45NTMxIEwyOTgsMTc0Ljk1MzEgIiBmaWxsPSJub25lIiBzdHlsZT0ic3Ryb2tlOiMxODE4MTg7c3Ryb2tlLXdpZHRoOjEuMDsiLz48cmVjdCBmaWxsPSIjRjFGMUYxIiBoZWlnaHQ9IjM0Ljk4NDQiIHJ4PSIxMi41IiByeT0iMTIuNSIgc3R5bGU9InN0cm9rZTojMTgxODE4O3N0cm9rZS13aWR0aDoxLjU7IiB3aWR0aD0iOTEiIHg9IjI5OCIgeT0iMjY3LjQyOTciLz48dGV4dCBmaWxsPSIjMDAwMDAwIiBmb250LWZhbWlseT0ic2Fucy1zZXJpZiIgZm9udC1zaXplPSIxNCIgbGVuZ3RoQWRqdXN0PSJzcGFjaW5nIiB0ZXh0TGVuZ3RoPSI3MSIgeD0iMzA4IiB5PSIyOTAuNjY0MSI+S2VsZW1haGFuOjwvdGV4dD48cmVjdCBmaWxsPSIjRjFGMUYxIiBoZWlnaHQ9IjM0Ljk4NDQiIHJ4PSIxMi41IiByeT0iMTIuNSIgc3R5bGU9InN0cm9rZTojMTgxODE4O3N0cm9rZS13aWR0aDoxLjU7IiB3aWR0aD0iMjc5IiB4PSI0MzkiIHk9IjIzOS45Mzc1Ii8+PHRleHQgZmlsbD0iIzAwMDAwMCIgZm9udC1mYW1pbHk9InNhbnMtc2VyaWYiIGZvbnQtc2l6ZT0iMTQiIGxlbmd0aEFkanVzdD0ic3BhY2luZyIgdGV4dExlbmd0aD0iMjU5IiB4PSI0NDkiIHk9IjI2My4xNzE5Ij5LdXJhbmcgZmxla3NpYmVsIHVudHVrIGtldGlkYWtwYXN0aWFuPC90ZXh0PjxwYXRoIGQ9Ik0zODksMjg0LjkyMTkgTDM5OSwyODQuOTIxOSBDNDE0LDI4NC45MjE5IDQxNCwyNTcuNDI5NyA0MjksMjU3LjQyOTcgTDQzOSwyNTcuNDI5NyAiIGZpbGw9Im5vbmUiIHN0eWxlPSJzdHJva2U6IzE4MTgxODtzdHJva2Utd2lkdGg6MS4wOyIvPjxyZWN0IGZpbGw9IiNGMUYxRjEiIGhlaWdodD0iMzQuOTg0NCIgcng9IjEyLjUiIHJ5PSIxMi41IiBzdHlsZT0ic3Ryb2tlOiMxODE4MTg7c3Ryb2tlLXdpZHRoOjEuNTsiIHdpZHRoPSIyOTQiIHg9IjQzOSIgeT0iMjk0LjkyMTkiLz48dGV4dCBmaWxsPSIjMDAwMDAwIiBmb250LWZhbWlseT0ic2Fucy1zZXJpZiIgZm9udC1zaXplPSIxNCIgbGVuZ3RoQWRqdXN0PSJzcGFjaW5nIiB0ZXh0TGVuZ3RoPSIyNzQiIHg9IjQ0OSIgeT0iMzE4LjE1NjMiPk1lbWJ1dHVoa2FuIGZ1bmdzaSBrb25zZWt1ZW4geWFuZyB0ZXBhdDwvdGV4dD48cGF0aCBkPSJNMzg5LDI4NC45MjE5IEwzOTksMjg0LjkyMTkgQzQxNCwyODQuOTIxOSA0MTQsMzEyLjQxNDEgNDI5LDMxMi40MTQxIEw0MzksMzEyLjQxNDEgIiBmaWxsPSJub25lIiBzdHlsZT0ic3Ryb2tlOiMxODE4MTg7c3Ryb2tlLXdpZHRoOjEuMDsiLz48cGF0aCBkPSJNMjQ4LDE3NC45NTMxIEwyNTgsMTc0Ljk1MzEgQzI3MywxNzQuOTUzMSAyNzMsMjg0LjkyMTkgMjg4LDI4NC45MjE5IEwyOTgsMjg0LjkyMTkgIiBmaWxsPSJub25lIiBzdHlsZT0ic3Ryb2tlOiMxODE4MTg7c3Ryb2tlLXdpZHRoOjEuMDsiLz48cGF0aCBkPSJNMTE0LDI4NC45MjE5IEwxMjQsMjg0LjkyMTkgQzEzOSwyODQuOTIxOSAxMzksMTc0Ljk1MzEgMTU0LDE3NC45NTMxIEwxNjQsMTc0Ljk1MzEgIiBmaWxsPSJub25lIiBzdHlsZT0ic3Ryb2tlOiMxODE4MTg7c3Ryb2tlLXdpZHRoOjEuMDsiLz48cmVjdCBmaWxsPSIjRjFGMUYxIiBoZWlnaHQ9IjM0Ljk4NDQiIHJ4PSIxMi41IiByeT0iMTIuNSIgc3R5bGU9InN0cm9rZTojMTgxODE4O3N0cm9rZS13aWR0aDoxLjU7IiB3aWR0aD0iNzAiIHg9IjE2NCIgeT0iNDMyLjM4MjgiLz48dGV4dCBmaWxsPSIjMDAwMDAwIiBmb250LWZhbWlseT0ic2Fucy1zZXJpZiIgZm9udC1zaXplPSIxNCIgbGVuZ3RoQWRqdXN0PSJzcGFjaW5nIiB0ZXh0TGVuZ3RoPSI1MCIgeD0iMTc0IiB5PSI0NTUuNjE3MiI+TWFtZGFuaTwvdGV4dD48cmVjdCBmaWxsPSIjRjFGMUYxIiBoZWlnaHQ9IjM0Ljk4NDQiIHJ4PSIxMi41IiByeT0iMTIuNSIgc3R5bGU9InN0cm9rZTojMTgxODE4O3N0cm9rZS13aWR0aDoxLjU7IiB3aWR0aD0iMTk2IiB4PSIyODQiIHk9IjM0OS45MDYzIi8+PHRleHQgZmlsbD0iIzAwMDAwMCIgZm9udC1mYW1pbHk9InNhbnMtc2VyaWYiIGZvbnQtc2l6ZT0iMTQiIGxlbmd0aEFkanVzdD0ic3BhY2luZyIgdGV4dExlbmd0aD0iMTc2IiB4PSIyOTQiIHk9IjM3My4xNDA2Ij5Lb25zZWt1ZW46IEhpbXB1bmFuIEZ1enp5PC90ZXh0PjxwYXRoIGQ9Ik0yMzQsNDQ5Ljg3NSBMMjQ0LDQ0OS44NzUgQzI1OSw0NDkuODc1IDI1OSwzNjcuMzk4NCAyNzQsMzY3LjM5ODQgTDI4NCwzNjcuMzk4NCAiIGZpbGw9Im5vbmUiIHN0eWxlPSJzdHJva2U6IzE4MTgxODtzdHJva2Utd2lkdGg6MS4wOyIvPjxyZWN0IGZpbGw9IiNGMUYxRjEiIGhlaWdodD0iMzQuOTg0NCIgcng9IjEyLjUiIHJ5PSIxMi41IiBzdHlsZT0ic3Ryb2tlOiMxODE4MTg7c3Ryb2tlLXdpZHRoOjEuNTsiIHdpZHRoPSIxODEiIHg9IjI4NCIgeT0iNDA0Ljg5MDYiLz48dGV4dCBmaWxsPSIjMDAwMDAwIiBmb250LWZhbWlseT0ic2Fucy1zZXJpZiIgZm9udC1zaXplPSIxNCIgbGVuZ3RoQWRqdXN0PSJzcGFjaW5nIiB0ZXh0TGVuZ3RoPSIxNjEiIHg9IjI5NCIgeT0iNDI4LjEyNSI+RGVmdXp6aWZpa2FzaTogQ2VudHJvaWQ8L3RleHQ+PHBhdGggZD0iTTIzNCw0NDkuODc1IEwyNDQsNDQ5Ljg3NSBDMjU5LDQ0OS44NzUgMjU5LDQyMi4zODI4IDI3NCw0MjIuMzgyOCBMMjg0LDQyMi4zODI4ICIgZmlsbD0ibm9uZSIgc3R5bGU9InN0cm9rZTojMTgxODE4O3N0cm9rZS13aWR0aDoxLjA7Ii8+PHJlY3QgZmlsbD0iI0YxRjFGMSIgaGVpZ2h0PSIzNC45ODQ0IiByeD0iMTIuNSIgcnk9IjEyLjUiIHN0eWxlPSJzdHJva2U6IzE4MTgxODtzdHJva2Utd2lkdGg6MS41OyIgd2lkdGg9Ijk3IiB4PSIyODQiIHk9IjQ1OS44NzUiLz48dGV4dCBmaWxsPSIjMDAwMDAwIiBmb250LWZhbWlseT0ic2Fucy1zZXJpZiIgZm9udC1zaXplPSIxNCIgbGVuZ3RoQWRqdXN0PSJzcGFjaW5nIiB0ZXh0TGVuZ3RoPSI3NyIgeD0iMjk0IiB5PSI0ODMuMTA5NCI+S2V1bmdndWxhbjo8L3RleHQ+PHJlY3QgZmlsbD0iI0YxRjFGMSIgaGVpZ2h0PSIzNC45ODQ0IiByeD0iMTIuNSIgcnk9IjEyLjUiIHN0eWxlPSJzdHJva2U6IzE4MTgxODtzdHJva2Utd2lkdGg6MS41OyIgd2lkdGg9IjI2NiIgeD0iNDMxIiB5PSI0NTkuODc1Ii8+PHRleHQgZmlsbD0iIzAwMDAwMCIgZm9udC1mYW1pbHk9InNhbnMtc2VyaWYiIGZvbnQtc2l6ZT0iMTQiIGxlbmd0aEFkanVzdD0ic3BhY2luZyIgdGV4dExlbmd0aD0iMjQ2IiB4PSI0NDEiIHk9IjQ4My4xMDk0Ij5GbGVrc2liZWwgdW50dWsga29tcGxla3NpdGFzIGF0dXJhbjwvdGV4dD48cGF0aCBkPSJNMzgxLDQ3Ny4zNjcyIEwzOTEsNDc3LjM2NzIgQzQwNiw0NzcuMzY3MiA0MDYsNDc3LjM2NzIgNDIxLDQ3Ny4zNjcyIEw0MzEsNDc3LjM2NzIgIiBmaWxsPSJub25lIiBzdHlsZT0ic3Ryb2tlOiMxODE4MTg7c3Ryb2tlLXdpZHRoOjEuMDsiLz48cGF0aCBkPSJNMjM0LDQ0OS44NzUgTDI0NCw0NDkuODc1IEMyNTksNDQ5Ljg3NSAyNTksNDc3LjM2NzIgMjc0LDQ3Ny4zNjcyIEwyODQsNDc3LjM2NzIgIiBmaWxsPSJub25lIiBzdHlsZT0ic3Ryb2tlOiMxODE4MTg7c3Ryb2tlLXdpZHRoOjEuMDsiLz48cmVjdCBmaWxsPSIjRjFGMUYxIiBoZWlnaHQ9IjM0Ljk4NDQiIHJ4PSIxMi41IiByeT0iMTIuNSIgc3R5bGU9InN0cm9rZTojMTgxODE4O3N0cm9rZS13aWR0aDoxLjU7IiB3aWR0aD0iOTEiIHg9IjI4NCIgeT0iNTE0Ljg1OTQiLz48dGV4dCBmaWxsPSIjMDAwMDAwIiBmb250LWZhbWlseT0ic2Fucy1zZXJpZiIgZm9udC1zaXplPSIxNCIgbGVuZ3RoQWRqdXN0PSJzcGFjaW5nIiB0ZXh0TGVuZ3RoPSI3MSIgeD0iMjk0IiB5PSI1MzguMDkzOCI+S2VsZW1haGFuOjwvdGV4dD48cmVjdCBmaWxsPSIjRjFGMUYxIiBoZWlnaHQ9IjM0Ljk4NDQiIHJ4PSIxMi41IiByeT0iMTIuNSIgc3R5bGU9InN0cm9rZTojMTgxODE4O3N0cm9rZS13aWR0aDoxLjU7IiB3aWR0aD0iMTk3IiB4PSI0MjUiIHk9IjUxNC44NTk0Ii8+PHRleHQgZmlsbD0iIzAwMDAwMCIgZm9udC1mYW1pbHk9InNhbnMtc2VyaWYiIGZvbnQtc2l6ZT0iMTQiIGxlbmd0aEFkanVzdD0ic3BhY2luZyIgdGV4dExlbmd0aD0iMTc3IiB4PSI0MzUiIHk9IjUzOC4wOTM4Ij5Qcm9zZXMga29tcHV0YXNpIGtvbXBsZWtzPC90ZXh0PjxwYXRoIGQ9Ik0zNzUsNTMyLjM1MTYgTDM4NSw1MzIuMzUxNiBDNDAwLDUzMi4zNTE2IDQwMCw1MzIuMzUxNiA0MTUsNTMyLjM1MTYgTDQyNSw1MzIuMzUxNiAiIGZpbGw9Im5vbmUiIHN0eWxlPSJzdHJva2U6IzE4MTgxODtzdHJva2Utd2lkdGg6MS4wOyIvPjxwYXRoIGQ9Ik0yMzQsNDQ5Ljg3NSBMMjQ0LDQ0OS44NzUgQzI1OSw0NDkuODc1IDI1OSw1MzIuMzUxNiAyNzQsNTMyLjM1MTYgTDI4NCw1MzIuMzUxNiAiIGZpbGw9Im5vbmUiIHN0eWxlPSJzdHJva2U6IzE4MTgxODtzdHJva2Utd2lkdGg6MS4wOyIvPjxwYXRoIGQ9Ik0xMTQsMjg0LjkyMTkgTDEyNCwyODQuOTIxOSBDMTM5LDI4NC45MjE5IDEzOSw0NDkuODc1IDE1NCw0NDkuODc1IEwxNjQsNDQ5Ljg3NSAiIGZpbGw9Im5vbmUiIHN0eWxlPSJzdHJva2U6IzE4MTgxODtzdHJva2Utd2lkdGg6MS4wOyIvPjxyZWN0IGZpbGw9IiNGMUYxRjEiIGhlaWdodD0iMzQuOTg0NCIgcng9IjEyLjUiIHJ5PSIxMi41IiBzdHlsZT0ic3Ryb2tlOiMxODE4MTg7c3Ryb2tlLXdpZHRoOjEuNTsiIHdpZHRoPSIxMDQiIHg9IjEwIiB5PSI2NzkuODEyNSIvPjx0ZXh0IGZpbGw9IiMwMDAwMDAiIGZvbnQtZmFtaWx5PSJzYW5zLXNlcmlmIiBmb250LXNpemU9IjE0IiBsZW5ndGhBZGp1c3Q9InNwYWNpbmciIHRleHRMZW5ndGg9Ijg0IiB4PSIyMCIgeT0iNzAzLjA0NjkiPkV2YWx1YXNpIFNWTTwvdGV4dD48cmVjdCBmaWxsPSIjRjFGMUYxIiBoZWlnaHQ9IjM0Ljk4NDQiIHJ4PSIxMi41IiByeT0iMTIuNSIgc3R5bGU9InN0cm9rZTojMTgxODE4O3N0cm9rZS13aWR0aDoxLjU7IiB3aWR0aD0iMjU4IiB4PSIxNjQiIHk9IjU2OS44NDM4Ii8+PHRleHQgZmlsbD0iIzAwMDAwMCIgZm9udC1mYW1pbHk9InNhbnMtc2VyaWYiIGZvbnQtc2l6ZT0iMTQiIGxlbmd0aEFkanVzdD0ic3BhY2luZyIgdGV4dExlbmd0aD0iMjM4IiB4PSIxNzQiIHk9IjU5My4wNzgxIj5Ba3VyYXNpOiBQZXJzZW50YXNlIHByZWRpa3NpIGJlbmFyPC90ZXh0PjxwYXRoIGQ9Ik0xMTQsNjk3LjMwNDcgTDEyNCw2OTcuMzA0NyBDMTM5LDY5Ny4zMDQ3IDEzOSw1ODcuMzM1OSAxNTQsNTg3LjMzNTkgTDE2NCw1ODcuMzM1OSAiIGZpbGw9Im5vbmUiIHN0eWxlPSJzdHJva2U6IzE4MTgxODtzdHJva2Utd2lkdGg6MS4wOyIvPjxyZWN0IGZpbGw9IiNGMUYxRjEiIGhlaWdodD0iMzQuOTg0NCIgcng9IjEyLjUiIHJ5PSIxMi41IiBzdHlsZT0ic3Ryb2tlOiMxODE4MTg7c3Ryb2tlLXdpZHRoOjEuNTsiIHdpZHRoPSIzMzUiIHg9IjE2NCIgeT0iNjI0LjgyODEiLz48dGV4dCBmaWxsPSIjMDAwMDAwIiBmb250LWZhbWlseT0ic2Fucy1zZXJpZiIgZm9udC1zaXplPSIxNCIgbGVuZ3RoQWRqdXN0PSJzcGFjaW5nIiB0ZXh0TGVuZ3RoPSIzMTUiIHg9IjE3NCIgeT0iNjQ4LjA2MjUiPlByZXNpc2k6IFByb3BvcnNpIHByZWRpa3NpIHBvc2l0aWYgeWFuZyBiZW5hcjwvdGV4dD48cGF0aCBkPSJNMTE0LDY5Ny4zMDQ3IEwxMjQsNjk3LjMwNDcgQzEzOSw2OTcuMzA0NyAxMzksNjQyLjMyMDMgMTU0LDY0Mi4zMjAzIEwxNjQsNjQyLjMyMDMgIiBmaWxsPSJub25lIiBzdHlsZT0ic3Ryb2tlOiMxODE4MTg7c3Ryb2tlLXdpZHRoOjEuMDsiLz48cmVjdCBmaWxsPSIjRjFGMUYxIiBoZWlnaHQ9IjM0Ljk4NDQiIHJ4PSIxMi41IiByeT0iMTIuNSIgc3R5bGU9InN0cm9rZTojMTgxODE4O3N0cm9rZS13aWR0aDoxLjU7IiB3aWR0aD0iMzM1IiB4PSIxNjQiIHk9IjY3OS44MTI1Ii8+PHRleHQgZmlsbD0iIzAwMDAwMCIgZm9udC1mYW1pbHk9InNhbnMtc2VyaWYiIGZvbnQtc2l6ZT0iMTQiIGxlbmd0aEFkanVzdD0ic3BhY2luZyIgdGV4dExlbmd0aD0iMzE1IiB4PSIxNzQiIHk9IjcwMy4wNDY5Ij5SZWNhbGw6IFByb3BvcnNpIGRhdGEgcG9zaXRpZiB5YW5nIHRlcmRldGVrc2k8L3RleHQ+PHBhdGggZD0iTTExNCw2OTcuMzA0NyBMMTI0LDY5Ny4zMDQ3IEMxMzksNjk3LjMwNDcgMTM5LDY5Ny4zMDQ3IDE1NCw2OTcuMzA0NyBMMTY0LDY5Ny4zMDQ3ICIgZmlsbD0ibm9uZSIgc3R5bGU9InN0cm9rZTojMTgxODE4O3N0cm9rZS13aWR0aDoxLjA7Ii8+PHJlY3QgZmlsbD0iI0YxRjFGMSIgaGVpZ2h0PSIzNC45ODQ0IiByeD0iMTIuNSIgcnk9IjEyLjUiIHN0eWxlPSJzdHJva2U6IzE4MTgxODtzdHJva2Utd2lkdGg6MS41OyIgd2lkdGg9IjgzIiB4PSIxNjQiIHk9Ijc2Mi4yODkxIi8+PHRleHQgZmlsbD0iIzAwMDAwMCIgZm9udC1mYW1pbHk9InNhbnMtc2VyaWYiIGZvbnQtc2l6ZT0iMTQiIGxlbmd0aEFkanVzdD0ic3BhY2luZyIgdGV4dExlbmd0aD0iNjMiIHg9IjE3NCIgeT0iNzg1LjUyMzQiPkYxLVNjb3JlOjwvdGV4dD48cmVjdCBmaWxsPSIjRjFGMUYxIiBoZWlnaHQ9IjM0Ljk4NDQiIHJ4PSIxMi41IiByeT0iMTIuNSIgc3R5bGU9InN0cm9rZTojMTgxODE4O3N0cm9rZS13aWR0aDoxLjU7IiB3aWR0aD0iMzI5IiB4PSIyOTciIHk9IjczNC43OTY5Ii8+PHRleHQgZmlsbD0iIzAwMDAwMCIgZm9udC1mYW1pbHk9InNhbnMtc2VyaWYiIGZvbnQtc2l6ZT0iMTQiIGxlbmd0aEFkanVzdD0ic3BhY2luZyIgdGV4dExlbmd0aD0iMzA5IiB4PSIzMDciIHk9Ijc1OC4wMzEzIj5SYXRhLXJhdGEgaGFybW9uaXMgYW50YXJhIHByZXNpc2kgZGFuIHJlY2FsbDwvdGV4dD48cGF0aCBkPSJNMjQ3LDc3OS43ODEzIEwyNTcsNzc5Ljc4MTMgQzI3Miw3NzkuNzgxMyAyNzIsNzUyLjI4OTEgMjg3LDc1Mi4yODkxIEwyOTcsNzUyLjI4OTEgIiBmaWxsPSJub25lIiBzdHlsZT0ic3Ryb2tlOiMxODE4MTg7c3Ryb2tlLXdpZHRoOjEuMDsiLz48cmVjdCBmaWxsPSIjRjFGMUYxIiBoZWlnaHQ9IjM0Ljk4NDQiIHJ4PSIxMi41IiByeT0iMTIuNSIgc3R5bGU9InN0cm9rZTojMTgxODE4O3N0cm9rZS13aWR0aDoxLjU7IiB3aWR0aD0iMjczIiB4PSIyOTciIHk9Ijc4OS43ODEzIi8+PHRleHQgZmlsbD0iIzAwMDAwMCIgZm9udC1mYW1pbHk9InNhbnMtc2VyaWYiIGZvbnQtc2l6ZT0iMTQiIGxlbmd0aEFkanVzdD0ic3BhY2luZyIgdGV4dExlbmd0aD0iMjUzIiB4PSIzMDciIHk9IjgxMy4wMTU2Ij5CZXJndW5hIHVudHVrIGRhdGFzZXQgdGlkYWsgc2VpbWJhbmc8L3RleHQ+PHBhdGggZD0iTTI0Nyw3NzkuNzgxMyBMMjU3LDc3OS43ODEzIEMyNzIsNzc5Ljc4MTMgMjcyLDgwNy4yNzM0IDI4Nyw4MDcuMjczNCBMMjk3LDgwNy4yNzM0ICIgZmlsbD0ibm9uZSIgc3R5bGU9InN0cm9rZTojMTgxODE4O3N0cm9rZS13aWR0aDoxLjA7Ii8+PHBhdGggZD0iTTExNCw2OTcuMzA0NyBMMTI0LDY5Ny4zMDQ3IEMxMzksNjk3LjMwNDcgMTM5LDc3OS43ODEzIDE1NCw3NzkuNzgxMyBMMTY0LDc3OS43ODEzICIgZmlsbD0ibm9uZSIgc3R5bGU9InN0cm9rZTojMTgxODE4O3N0cm9rZS13aWR0aDoxLjA7Ii8+PHJlY3QgZmlsbD0iI0YxRjFGMSIgaGVpZ2h0PSIzNC45ODQ0IiByeD0iMTIuNSIgcnk9IjEyLjUiIHN0eWxlPSJzdHJva2U6IzE4MTgxODtzdHJva2Utd2lkdGg6MS41OyIgd2lkdGg9IjkwIiB4PSIxMCIgeT0iOTI3LjI0MjIiLz48dGV4dCBmaWxsPSIjMDAwMDAwIiBmb250LWZhbWlseT0ic2Fucy1zZXJpZiIgZm9udC1zaXplPSIxNCIgbGVuZ3RoQWRqdXN0PSJzcGFjaW5nIiB0ZXh0TGVuZ3RoPSI3MCIgeD0iMjAiIHk9Ijk1MC40NzY2Ij5BTk4gdnMgUk5OPC90ZXh0PjxyZWN0IGZpbGw9IiNGMUYxRjEiIGhlaWdodD0iMzQuOTg0NCIgcng9IjEyLjUiIHJ5PSIxMi41IiBzdHlsZT0ic3Ryb2tlOiMxODE4MTg7c3Ryb2tlLXdpZHRoOjEuNTsiIHdpZHRoPSIxMjYiIHg9IjE1MCIgeT0iODcyLjI1NzgiLz48dGV4dCBmaWxsPSIjMDAwMDAwIiBmb250LWZhbWlseT0ic2Fucy1zZXJpZiIgZm9udC1zaXplPSIxNCIgbGVuZ3RoQWRqdXN0PSJzcGFjaW5nIiB0ZXh0TGVuZ3RoPSIxMDYiIHg9IjE2MCIgeT0iODk1LjQ5MjIiPkFOTiBGZWVkZm9yd2FyZDwvdGV4dD48cmVjdCBmaWxsPSIjRjFGMUYxIiBoZWlnaHQ9IjM0Ljk4NDQiIHJ4PSIxMi41IiByeT0iMTIuNSIgc3R5bGU9InN0cm9rZTojMTgxODE4O3N0cm9rZS13aWR0aDoxLjU7IiB3aWR0aD0iMjE3IiB4PSIzMjYiIHk9Ijg0NC43NjU2Ii8+PHRleHQgZmlsbD0iIzAwMDAwMCIgZm9udC1mYW1pbHk9InNhbnMtc2VyaWYiIGZvbnQtc2l6ZT0iMTQiIGxlbmd0aEFkanVzdD0ic3BhY2luZyIgdGV4dExlbmd0aD0iMTk3IiB4PSIzMzYiIHk9Ijg2OCI+SW5mb3JtYXNpIGJlcmdlcmFrIHNhdHUgYXJhaDwvdGV4dD48cGF0aCBkPSJNMjc2LDg4OS43NSBMMjg2LDg4OS43NSBDMzAxLDg4OS43NSAzMDEsODYyLjI1NzggMzE2LDg2Mi4yNTc4IEwzMjYsODYyLjI1NzggIiBmaWxsPSJub25lIiBzdHlsZT0ic3Ryb2tlOiMxODE4MTg7c3Ryb2tlLXdpZHRoOjEuMDsiLz48cmVjdCBmaWxsPSIjRjFGMUYxIiBoZWlnaHQ9IjM0Ljk4NDQiIHJ4PSIxMi41IiByeT0iMTIuNSIgc3R5bGU9InN0cm9rZTojMTgxODE4O3N0cm9rZS13aWR0aDoxLjU7IiB3aWR0aD0iMzg3IiB4PSIzMjYiIHk9Ijg5OS43NSIvPjx0ZXh0IGZpbGw9IiMwMDAwMDAiIGZvbnQtZmFtaWx5PSJzYW5zLXNlcmlmIiBmb250LXNpemU9IjE0IiBsZW5ndGhBZGp1c3Q9InNwYWNpbmciIHRleHRMZW5ndGg9IjM2NyIgeD0iMzM2IiB5PSI5MjIuOTg0NCI+Q29jb2sgdW50dWsgZGF0YSBzdGF0aXMgKGNvbnRvaDoga2xhc2lmaWthc2kgZ2FtYmFyKTwvdGV4dD48cGF0aCBkPSJNMjc2LDg4OS43NSBMMjg2LDg4OS43NSBDMzAxLDg4OS43NSAzMDEsOTE3LjI0MjIgMzE2LDkxNy4yNDIyIEwzMjYsOTE3LjI0MjIgIiBmaWxsPSJub25lIiBzdHlsZT0ic3Ryb2tlOiMxODE4MTg7c3Ryb2tlLXdpZHRoOjEuMDsiLz48cGF0aCBkPSJNMTAwLDk0NC43MzQ0IEwxMTAsOTQ0LjczNDQgQzEyNSw5NDQuNzM0NCAxMjUsODg5Ljc1IDE0MCw4ODkuNzUgTDE1MCw4ODkuNzUgIiBmaWxsPSJub25lIiBzdHlsZT0ic3Ryb2tlOiMxODE4MTg7c3Ryb2tlLXdpZHRoOjEuMDsiLz48cmVjdCBmaWxsPSIjRjFGMUYxIiBoZWlnaHQ9IjM0Ljk4NDQiIHJ4PSIxMi41IiByeT0iMTIuNSIgc3R5bGU9InN0cm9rZTojMTgxODE4O3N0cm9rZS13aWR0aDoxLjU7IiB3aWR0aD0iNDEiIHg9IjE1MCIgeT0iOTgyLjIyNjYiLz48dGV4dCBmaWxsPSIjMDAwMDAwIiBmb250LWZhbWlseT0ic2Fucy1zZXJpZiIgZm9udC1zaXplPSIxNCIgbGVuZ3RoQWRqdXN0PSJzcGFjaW5nIiB0ZXh0TGVuZ3RoPSIyMSIgeD0iMTYwIiB5PSIxMDA1LjQ2MDkiPlJOTjwvdGV4dD48cmVjdCBmaWxsPSIjRjFGMUYxIiBoZWlnaHQ9IjM0Ljk4NDQiIHJ4PSIxMi41IiByeT0iMTIuNSIgc3R5bGU9InN0cm9rZTojMTgxODE4O3N0cm9rZS13aWR0aDoxLjU7IiB3aWR0aD0iMjk4IiB4PSIyNDEiIHk9Ijk1NC43MzQ0Ii8+PHRleHQgZmlsbD0iIzAwMDAwMCIgZm9udC1mYW1pbHk9InNhbnMtc2VyaWYiIGZvbnQtc2l6ZT0iMTQiIGxlbmd0aEFkanVzdD0ic3BhY2luZyIgdGV4dExlbmd0aD0iMjc4IiB4PSIyNTEiIHk9Ijk3Ny45Njg4Ij5NZW1pbGlraSAibWVtb3JpIiB1bnR1ayBkYXRhIHNla3VlbnNpYWw8L3RleHQ+PHBhdGggZD0iTTE5MSw5OTkuNzE4OCBMMjAxLDk5OS43MTg4IEMyMTYsOTk5LjcxODggMjE2LDk3Mi4yMjY2IDIzMSw5NzIuMjI2NiBMMjQxLDk3Mi4yMjY2ICIgZmlsbD0ibm9uZSIgc3R5bGU9InN0cm9rZTojMTgxODE4O3N0cm9rZS13aWR0aDoxLjA7Ii8+PHJlY3QgZmlsbD0iI0YxRjFGMSIgaGVpZ2h0PSIzNC45ODQ0IiByeD0iMTIuNSIgcnk9IjEyLjUiIHN0eWxlPSJzdHJva2U6IzE4MTgxODtzdHJva2Utd2lkdGg6MS41OyIgd2lkdGg9IjMyMiIgeD0iMjQxIiB5PSIxMDA5LjcxODgiLz48dGV4dCBmaWxsPSIjMDAwMDAwIiBmb250LWZhbWlseT0ic2Fucy1zZXJpZiIgZm9udC1zaXplPSIxNCIgbGVuZ3RoQWRqdXN0PSJzcGFjaW5nIiB0ZXh0TGVuZ3RoPSIzMDIiIHg9IjI1MSIgeT0iMTAzMi45NTMxIj5Db2NvayB1bnR1ayBOTFAsIHByZWRpa3NpIGRlcmV0IHdha3R1LCBkbGwuPC90ZXh0PjxwYXRoIGQ9Ik0xOTEsOTk5LjcxODggTDIwMSw5OTkuNzE4OCBDMjE2LDk5OS43MTg4IDIxNiwxMDI3LjIxMDkgMjMxLDEwMjcuMjEwOSBMMjQxLDEwMjcuMjEwOSAiIGZpbGw9Im5vbmUiIHN0eWxlPSJzdHJva2U6IzE4MTgxODtzdHJva2Utd2lkdGg6MS4wOyIvPjxwYXRoIGQ9Ik0xMDAsOTQ0LjczNDQgTDExMCw5NDQuNzM0NCBDMTI1LDk0NC43MzQ0IDEyNSw5OTkuNzE4OCAxNDAsOTk5LjcxODggTDE1MCw5OTkuNzE4OCAiIGZpbGw9Im5vbmUiIHN0eWxlPSJzdHJva2U6IzE4MTgxODtzdHJva2Utd2lkdGg6MS4wOyIvPjxyZWN0IGZpbGw9IiNGMUYxRjEiIGhlaWdodD0iMzQuOTg0NCIgcng9IjEyLjUiIHJ5PSIxMi41IiBzdHlsZT0ic3Ryb2tlOiMxODE4MTg7c3Ryb2tlLXdpZHRoOjEuNTsiIHdpZHRoPSIyMzgiIHg9IjEwIiB5PSIxMjI5LjY1NjMiLz48dGV4dCBmaWxsPSIjMDAwMDAwIiBmb250LWZhbWlseT0ic2Fucy1zZXJpZiIgZm9udC1zaXplPSIxNCIgbGVuZ3RoQWRqdXN0PSJzcGFjaW5nIiB0ZXh0TGVuZ3RoPSIyMTgiIHg9IjIwIiB5PSIxMjUyLjg5MDYiPlByZWRpa3NpIEhhcmdhIFJ1bWFoIGRlbmdhbiBBTk48L3RleHQ+PHJlY3QgZmlsbD0iI0YxRjFGMSIgaGVpZ2h0PSIzNC45ODQ0IiByeD0iMTIuNSIgcnk9IjEyLjUiIHN0eWxlPSJzdHJva2U6IzE4MTgxODtzdHJva2Utd2lkdGg6MS41OyIgd2lkdGg9IjU1IiB4PSIyOTgiIHk9IjExMTkuNjg3NSIvPjx0ZXh0IGZpbGw9IiMwMDAwMDAiIGZvbnQtZmFtaWx5PSJzYW5zLXNlcmlmIiBmb250LXNpemU9IjE0IiBsZW5ndGhBZGp1c3Q9InNwYWNpbmciIHRleHRMZW5ndGg9IjM1IiB4PSIzMDgiIHk9IjExNDIuOTIxOSI+SW5wdXQ8L3RleHQ+PHJlY3QgZmlsbD0iI0YxRjFGMSIgaGVpZ2h0PSIzNC45ODQ0IiByeD0iMTIuNSIgcnk9IjEyLjUiIHN0eWxlPSJzdHJva2U6IzE4MTgxODtzdHJva2Utd2lkdGg6MS41OyIgd2lkdGg9IjYyIiB4PSI0MDMiIHk9IjEwNjQuNzAzMSIvPjx0ZXh0IGZpbGw9IiMwMDAwMDAiIGZvbnQtZmFtaWx5PSJzYW5zLXNlcmlmIiBmb250LXNpemU9IjE0IiBsZW5ndGhBZGp1c3Q9InNwYWNpbmciIHRleHRMZW5ndGg9IjQyIiB4PSI0MTMiIHk9IjEwODcuOTM3NSI+TG9rYXNpPC90ZXh0PjxyZWN0IGZpbGw9IiNGMUYxRjEiIGhlaWdodD0iMzQuOTg0NCIgcng9IjEyLjUiIHJ5PSIxMi41IiBzdHlsZT0ic3Ryb2tlOiMxODE4MTg7c3Ryb2tlLXdpZHRoOjEuNTsiIHdpZHRoPSIyNTIiIHg9IjUxNSIgeT0iMTA2NC43MDMxIi8+PHRleHQgZmlsbD0iIzAwMDAwMCIgZm9udC1mYW1pbHk9InNhbnMtc2VyaWYiIGZvbnQtc2l6ZT0iMTQiIGxlbmd0aEFkanVzdD0ic3BhY2luZyIgdGV4dExlbmd0aD0iMjMyIiB4PSI1MjUiIHk9IjEwODcuOTM3NSI+THVhcyB3aWxheWFoLCBqYXJhayBrZSBwdXNhdCBrb3RhPC90ZXh0PjxwYXRoIGQ9Ik00NjUsMTA4Mi4xOTUzIEw0NzUsMTA4Mi4xOTUzIEM0OTAsMTA4Mi4xOTUzIDQ5MCwxMDgyLjE5NTMgNTA1LDEwODIuMTk1MyBMNTE1LDEwODIuMTk1MyAiIGZpbGw9Im5vbmUiIHN0eWxlPSJzdHJva2U6IzE4MTgxODtzdHJva2Utd2lkdGg6MS4wOyIvPjxwYXRoIGQ9Ik0zNTMsMTEzNy4xNzk3IEwzNjMsMTEzNy4xNzk3IEMzNzgsMTEzNy4xNzk3IDM3OCwxMDgyLjE5NTMgMzkzLDEwODIuMTk1MyBMNDAzLDEwODIuMTk1MyAiIGZpbGw9Im5vbmUiIHN0eWxlPSJzdHJva2U6IzE4MTgxODtzdHJva2Utd2lkdGg6MS4wOyIvPjxyZWN0IGZpbGw9IiNGMUYxRjEiIGhlaWdodD0iMzQuOTg0NCIgcng9IjEyLjUiIHJ5PSIxMi41IiBzdHlsZT0ic3Ryb2tlOiMxODE4MTg7c3Ryb2tlLXdpZHRoOjEuNTsiIHdpZHRoPSI5OCIgeD0iNDAzIiB5PSIxMTE5LjY4NzUiLz48dGV4dCBmaWxsPSIjMDAwMDAwIiBmb250LWZhbWlseT0ic2Fucy1zZXJpZiIgZm9udC1zaXplPSIxNCIgbGVuZ3RoQWRqdXN0PSJzcGFjaW5nIiB0ZXh0TGVuZ3RoPSI3OCIgeD0iNDEzIiB5PSIxMTQyLjkyMTkiPkZpc2lrIHJ1bWFoPC90ZXh0PjxyZWN0IGZpbGw9IiNGMUYxRjEiIGhlaWdodD0iMzQuOTg0NCIgcng9IjEyLjUiIHJ5PSIxMi41IiBzdHlsZT0ic3Ryb2tlOiMxODE4MTg7c3Ryb2tlLXdpZHRoOjEuNTsiIHdpZHRoPSIzMTYiIHg9IjU1MSIgeT0iMTExOS42ODc1Ii8+PHRleHQgZmlsbD0iIzAwMDAwMCIgZm9udC1mYW1pbHk9InNhbnMtc2VyaWYiIGZvbnQtc2l6ZT0iMTQiIGxlbmd0aEFkanVzdD0ic3BhY2luZyIgdGV4dExlbmd0aD0iMjk2IiB4PSI1NjEiIHk9IjExNDIuOTIxOSI+THVhcyBiYW5ndW5hbiwganVtbGFoIGthbWFyLCB1c2lhIGJhbmd1bmFuPC90ZXh0PjxwYXRoIGQ9Ik01MDEsMTEzNy4xNzk3IEw1MTEsMTEzNy4xNzk3IEM1MjYsMTEzNy4xNzk3IDUyNiwxMTM3LjE3OTcgNTQxLDExMzcuMTc5NyBMNTUxLDExMzcuMTc5NyAiIGZpbGw9Im5vbmUiIHN0eWxlPSJzdHJva2U6IzE4MTgxODtzdHJva2Utd2lkdGg6MS4wOyIvPjxwYXRoIGQ9Ik0zNTMsMTEzNy4xNzk3IEwzNjMsMTEzNy4xNzk3IEMzNzgsMTEzNy4xNzk3IDM3OCwxMTM3LjE3OTcgMzkzLDExMzcuMTc5NyBMNDAzLDExMzcuMTc5NyAiIGZpbGw9Im5vbmUiIHN0eWxlPSJzdHJva2U6IzE4MTgxODtzdHJva2Utd2lkdGg6MS4wOyIvPjxyZWN0IGZpbGw9IiNGMUYxRjEiIGhlaWdodD0iMzQuOTg0NCIgcng9IjEyLjUiIHJ5PSIxMi41IiBzdHlsZT0ic3Ryb2tlOiMxODE4MTg7c3Ryb2tlLXdpZHRoOjEuNTsiIHdpZHRoPSI1NSIgeD0iNDAzIiB5PSIxMTc0LjY3MTkiLz48dGV4dCBmaWxsPSIjMDAwMDAwIiBmb250LWZhbWlseT0ic2Fucy1zZXJpZiIgZm9udC1zaXplPSIxNCIgbGVuZ3RoQWRqdXN0PSJzcGFjaW5nIiB0ZXh0TGVuZ3RoPSIzNSIgeD0iNDEzIiB5PSIxMTk3LjkwNjMiPlBhc2FyPC90ZXh0PjxyZWN0IGZpbGw9IiNGMUYxRjEiIGhlaWdodD0iMzQuOTg0NCIgcng9IjEyLjUiIHJ5PSIxMi41IiBzdHlsZT0ic3Ryb2tlOiMxODE4MTg7c3Ryb2tlLXdpZHRoOjEuNTsiIHdpZHRoPSIxODEiIHg9IjUwOCIgeT0iMTE3NC42NzE5Ii8+PHRleHQgZmlsbD0iIzAwMDAwMCIgZm9udC1mYW1pbHk9InNhbnMtc2VyaWYiIGZvbnQtc2l6ZT0iMTQiIGxlbmd0aEFkanVzdD0ic3BhY2luZyIgdGV4dExlbmd0aD0iMTYxIiB4PSI1MTgiIHk9IjExOTcuOTA2MyI+SGFyZ2EgcmF0YS1yYXRhIGRpIGFyZWE8L3RleHQ+PHBhdGggZD0iTTQ1OCwxMTkyLjE2NDEgTDQ2OCwxMTkyLjE2NDEgQzQ4MywxMTkyLjE2NDEgNDgzLDExOTIuMTY0MSA0OTgsMTE5Mi4xNjQxIEw1MDgsMTE5Mi4xNjQxICIgZmlsbD0ibm9uZSIgc3R5bGU9InN0cm9rZTojMTgxODE4O3N0cm9rZS13aWR0aDoxLjA7Ii8+PHBhdGggZD0iTTM1MywxMTM3LjE3OTcgTDM2MywxMTM3LjE3OTcgQzM3OCwxMTM3LjE3OTcgMzc4LDExOTIuMTY0MSAzOTMsMTE5Mi4xNjQxIEw0MDMsMTE5Mi4xNjQxICIgZmlsbD0ibm9uZSIgc3R5bGU9InN0cm9rZTojMTgxODE4O3N0cm9rZS13aWR0aDoxLjA7Ii8+PHBhdGggZD0iTTI0OCwxMjQ3LjE0ODQgTDI1OCwxMjQ3LjE0ODQgQzI3MywxMjQ3LjE0ODQgMjczLDExMzcuMTc5NyAyODgsMTEzNy4xNzk3IEwyOTgsMTEzNy4xNzk3ICIgZmlsbD0ibm9uZSIgc3R5bGU9InN0cm9rZTojMTgxODE4O3N0cm9rZS13aWR0aDoxLjA7Ii8+PHJlY3QgZmlsbD0iI0YxRjFGMSIgaGVpZ2h0PSIzNC45ODQ0IiByeD0iMTIuNSIgcnk9IjEyLjUiIHN0eWxlPSJzdHJva2U6IzE4MTgxODtzdHJva2Utd2lkdGg6MS41OyIgd2lkdGg9IjkwIiB4PSIyOTgiIHk9IjEzMTIuMTMyOCIvPjx0ZXh0IGZpbGw9IiMwMDAwMDAiIGZvbnQtZmFtaWx5PSJzYW5zLXNlcmlmIiBmb250LXNpemU9IjE0IiBsZW5ndGhBZGp1c3Q9InNwYWNpbmciIHRleHRMZW5ndGg9IjcwIiB4PSIzMDgiIHk9IjEzMzUuMzY3MiI+QXJzaXRla3R1cjwvdGV4dD48cmVjdCBmaWxsPSIjRjFGMUYxIiBoZWlnaHQ9IjM0Ljk4NDQiIHJ4PSIxMi41IiByeT0iMTIuNSIgc3R5bGU9InN0cm9rZTojMTgxODE4O3N0cm9rZS13aWR0aDoxLjU7IiB3aWR0aD0iMjU5IiB4PSI0MzgiIHk9IjEyMjkuNjU2MyIvPjx0ZXh0IGZpbGw9IiMwMDAwMDAiIGZvbnQtZmFtaWx5PSJzYW5zLXNlcmlmIiBmb250LXNpemU9IjE0IiBsZW5ndGhBZGp1c3Q9InNwYWNpbmciIHRleHRMZW5ndGg9IjIzOSIgeD0iNDQ4IiB5PSIxMjUyLjg5MDYiPkxhcGlzYW4gSW5wdXQ6IFNlc3VhaSBqdW1sYWggZml0dXI8L3RleHQ+PHBhdGggZD0iTTM4OCwxMzI5LjYyNSBMMzk4LDEzMjkuNjI1IEM0MTMsMTMyOS42MjUgNDEzLDEyNDcuMTQ4NCA0MjgsMTI0Ny4xNDg0IEw0MzgsMTI0Ny4xNDg0ICIgZmlsbD0ibm9uZSIgc3R5bGU9InN0cm9rZTojMTgxODE4O3N0cm9rZS13aWR0aDoxLjA7Ii8+PHJlY3QgZmlsbD0iI0YxRjFGMSIgaGVpZ2h0PSIzNC45ODQ0IiByeD0iMTIuNSIgcnk9IjEyLjUiIHN0eWxlPSJzdHJva2U6IzE4MTgxODtzdHJva2Utd2lkdGg6MS41OyIgd2lkdGg9IjMwNyIgeD0iNDM4IiB5PSIxMjg0LjY0MDYiLz48dGV4dCBmaWxsPSIjMDAwMDAwIiBmb250LWZhbWlseT0ic2Fucy1zZXJpZiIgZm9udC1zaXplPSIxNCIgbGVuZ3RoQWRqdXN0PSJzcGFjaW5nIiB0ZXh0TGVuZ3RoPSIyODciIHg9IjQ0OCIgeT0iMTMwNy44NzUiPkhpZGRlbiBMYXllciAxOiAxMjggbmV1cm9uLCBha3RpdmFzaSBSZUxVPC90ZXh0PjxwYXRoIGQ9Ik0zODgsMTMyOS42MjUgTDM5OCwxMzI5LjYyNSBDNDEzLDEzMjkuNjI1IDQxMywxMzAyLjEzMjggNDI4LDEzMDIuMTMyOCBMNDM4LDEzMDIuMTMyOCAiIGZpbGw9Im5vbmUiIHN0eWxlPSJzdHJva2U6IzE4MTgxODtzdHJva2Utd2lkdGg6MS4wOyIvPjxyZWN0IGZpbGw9IiNGMUYxRjEiIGhlaWdodD0iMzQuOTg0NCIgcng9IjEyLjUiIHJ5PSIxMi41IiBzdHlsZT0ic3Ryb2tlOiMxODE4MTg7c3Ryb2tlLXdpZHRoOjEuNTsiIHdpZHRoPSIzMDAiIHg9IjQzOCIgeT0iMTMzOS42MjUiLz48dGV4dCBmaWxsPSIjMDAwMDAwIiBmb250LWZhbWlseT0ic2Fucy1zZXJpZiIgZm9udC1zaXplPSIxNCIgbGVuZ3RoQWRqdXN0PSJzcGFjaW5nIiB0ZXh0TGVuZ3RoPSIyODAiIHg9IjQ0OCIgeT0iMTM2Mi44NTk0Ij5IaWRkZW4gTGF5ZXIgMjogNjQgbmV1cm9uLCBha3RpdmFzaSBSZUxVPC90ZXh0PjxwYXRoIGQ9Ik0zODgsMTMyOS42MjUgTDM5OCwxMzI5LjYyNSBDNDEzLDEzMjkuNjI1IDQxMywxMzU3LjExNzIgNDI4LDEzNTcuMTE3MiBMNDM4LDEzNTcuMTE3MiAiIGZpbGw9Im5vbmUiIHN0eWxlPSJzdHJva2U6IzE4MTgxODtzdHJva2Utd2lkdGg6MS4wOyIvPjxyZWN0IGZpbGw9IiNGMUYxRjEiIGhlaWdodD0iMzQuOTg0NCIgcng9IjEyLjUiIHJ5PSIxMi41IiBzdHlsZT0ic3Ryb2tlOiMxODE4MTg7c3Ryb2tlLXdpZHRoOjEuNTsiIHdpZHRoPSIyNTEiIHg9IjQzOCIgeT0iMTM5NC42MDk0Ii8+PHRleHQgZmlsbD0iIzAwMDAwMCIgZm9udC1mYW1pbHk9InNhbnMtc2VyaWYiIGZvbnQtc2l6ZT0iMTQiIGxlbmd0aEFkanVzdD0ic3BhY2luZyIgdGV4dExlbmd0aD0iMjMxIiB4PSI0NDgiIHk9IjE0MTcuODQzOCI+T3V0cHV0OiAxIG5ldXJvbiwgYWt0aXZhc2kgbGluZWFyPC90ZXh0PjxwYXRoIGQ9Ik0zODgsMTMyOS42MjUgTDM5OCwxMzI5LjYyNSBDNDEzLDEzMjkuNjI1IDQxMywxNDEyLjEwMTYgNDI4LDE0MTIuMTAxNiBMNDM4LDE0MTIuMTAxNiAiIGZpbGw9Im5vbmUiIHN0eWxlPSJzdHJva2U6IzE4MTgxODtzdHJva2Utd2lkdGg6MS4wOyIvPjxwYXRoIGQ9Ik0yNDgsMTI0Ny4xNDg0IEwyNTgsMTI0Ny4xNDg0IEMyNzMsMTI0Ny4xNDg0IDI3MywxMzI5LjYyNSAyODgsMTMyOS42MjUgTDI5OCwxMzI5LjYyNSAiIGZpbGw9Im5vbmUiIHN0eWxlPSJzdHJva2U6IzE4MTgxODtzdHJva2Utd2lkdGg6MS4wOyIvPjwhLS1TUkM9W1ZMSERSeml3NEJwaExvbndRZXFhWTVxWkE3SWdjek9sSk1wTmk5RS15eVBRb3RvS0k4NFYzam5WdG80TGtzcklsOWllcGR4Q3gybV8taTBrakNmS0JOVjVXNlFzTGZmZjZkX3lFMUkzMFR0eGdCY3JtVThtZTNqaGxFV2VmV0oycjV4SEoxYlhIbm11cWptUTA0cjZWZk9qS2dXamFkYkxxaC1Zd2JzR1lZUHhTTG5CZHFzR2V1dURjcEFUMXhHS2pyQzFGemNHYm1lZERqblZOVGtEckhIRFk5Z3l5YTVRcWpPNFB2bGRMOHNxbDNqYmtla0VKS3RSSGhITlp6OHlIc2U5Z2NCVGlHLUFKRy1USV9pT0d6bmY1RHRzZkZJSDlYckliWTBUWG9KNmREa0FaTmVmbk9yZ2tzV0dWYkpqNVZyaElRc2d3ay1xZm8teGo2c05WbU5zSzNQSC1JbDlmUkRVVjhQN0dES2Y0N0Z5aWtTY2ZkX2h4X0ZLLWFHWkpNZTU2ZGpxbXJ3ZVNyOGZiQTU3Q1VvQWQ1NFdSYTh2c3JjN2duRWNpLVg3Uk5qNUpXNGhzTjNKXzhRbHU4R19pSzVTOUk3SElHN0p1VmJ3T3ZyYTJoRzItam9iYTFzeHJYZTVsa1pEU1FnUkVhNC1Hb3VOb0c2Vm5ETUctYmNlTENuQmUzbktFNFFyWndXOHpmRjVXbFFVTGVqNXZleEpMQUpRTWxWNGhYXzJMdURKb3ZjeWctNTluNERnR2tyVHlUOW1jSEdNOVEyX2pubE9wa3ZBcVdzWS1tNUpwUVppdGNMNVNpcmlBektlaFVYREF3cnJ3aXFWa1I5cGxFQmNMUXQ1Ujdkc0l0TmkwRld6aUd4blpBZ2NrSVpvYUZoQjZ0T3Jxb2gyNG0zY2hQZHFaQnlRRTJBZGRqZEtPRS1ONkduMUp3aFgwLV9FdzN6RWYzTGk0QzRTdFdidnJNV0FzSk12YkZNdGkySGl5WlpZT2prVzg1dTVUY1NLR1U5cWNVRU54QkN0eURhdHc0djNoWEpxNVN1cFdMYlcyZll4UnZDeHZUNV9SaG9halZaOHdiWGdndXdtNnJNMUFEMDdTSkdpUUpad0c0UVlpLVdCNmdiejZpUEFQVy1scVFFSWhpUl8wX3VNR291elY4cmZ5WGpOVjFHeWFpeUZQUjc0LWVRNy1PcG1kZGJiM0dxbEhmVVp5U051eEhmWUpaZjdiclNxNzlWbHR2VVpJX2ZkVmFfZi1icm5vX2lxQ1hES0FvTHp3eUpTVmh1eF9nMGxQZ3pHa3lNMjVoVlZ2eHkwTC1GcEpvZjA1dVR3WDlONjB5RW4yT1pPczRnUGtnSTctIC1kdlhzQU1IZTQ3allHbm5STDVOZFYwdFZlZF0tLT48L2c+PC9zdmc+;" vertex="1" parent="1">
            <mxGeometry x="-30" y="-410" width="879" height="1451" as="geometry" />
          </mxCell>
        </UserObject>
        <UserObject label="" plantUmlData="{&#xa;  &quot;data&quot;: &quot;@startmindmap\n* Yuudon\n    * Perbedaan Logika Fuzzy Tsukamoto dengan Metode Inferensi Fuzzy Lainnya\n        * Perbedaan\n            * Tsukamoto\n                * Fungsi keanggotaan output monoton\n                * Defuzzifikasi dengan rata-rata tertimbang\n            * Mamdani\n                * Fungsi keanggotaan fuzzy untuk input dan output\n                * Defuzzifikasi menggunakan max-min atau max-dot\n            * Sugeno\n                * Gabungan logika fuzzy dengan fungsi matematik\n                * Efisien komputasi\n        * Keunggulan Tsukamoto\n            * Output halus dan kontinu\n            * Cocok untuk aplikasi yang membutuhkan respons mulus\n        * Kelemahan Tsukamoto\n            * Persyaratan monotonitas dapat membatasi keluwesan\n    * Evaluasi Kinerja Model SVM untuk Klasifikasi Teks\n        * Metrik Relevan\n            * Akurasi\n                * Rasio prediksi benar terhadap total prediksi\n                * Tidak cocok untuk dataset tidak seimbang\n            * Presisi\n                * Proporsi prediksi positif yang benar\n                * Penting jika false positive dihindari\n            * Recall (Sensitivitas)\n                * Proporsi positif sebenarnya yang diprediksi dengan benar\n                * Penting jika false negative dihindari\n            * F1-Score\n                * Harmonic mean dari presisi dan recall\n                * Baik untuk keseimbangan keduanya\n            * ROC-AUC (untuk klasifikasi biner)\n                * Area di bawah kurva ROC\n                * Mengukur kemampuan model memisahkan kelas\n    * Perbedaan Antara ANN Feedforward dan Recurrent Neural Network (RNN)\n        * Perbedaan\n            * ANN Feedforward\n                * Data mengalir dari input ke output tanpa loop\n            * RNN\n                * Memiliki loop untuk menjaga informasi sebelumnya\n                * Cocok untuk data urut seperti teks atau time series\n        * Kapan Menggunakan RNN\n            * Saat处理 sequential data seperti pemrosesan bahasa alami, pengenalan suara, atau prediksi time series\n    * Arsitektur Jaringan Saraf Tiruan untuk Prediksi Harga Rumah\n        * Arsitektur Pilihan\n            * Feedforward Neural Network (Multi-Layer Perceptron - MLP)\n                * Sesuai untuk masalah regresi dengan data non-urut\n        * Alasan Memilih Arsitektur\n            * Simplicity dan efektivitas dalam menangani data regresi dengan fitur campuran\n        * Fitur Input\n            * Luas tanah, jumlah kamar, lokasi, usia rumah, dan fitur lain yang berhubungan dengan harga rumah\n        * Pertimbangan Lain\n            * Menggunakan teknik regularisasi seperti dropout untuk mencegah overfitting\n            * Struktur jaringan dengan beberapa lapisan tersembunyi untuk menangkap interaksi kompleks antar fitur\n@endmindmap&quot;,&#xa;  &quot;format&quot;: &quot;svg&quot;&#xa;}" id="EirJ000sOLTqfTJIidtu-4">
          <mxCell style="shape=image;noLabel=1;verticalAlign=top;aspect=fixed;imageAspect=0;image=data:image/svg+xml,PD94bWwgdmVyc2lvbj0iMS4wIiBlbmNvZGluZz0idXMtYXNjaWkiIHN0YW5kYWxvbmU9Im5vIj8+PHN2ZyB4bWxucz0iaHR0cDovL3d3dy53My5vcmcvMjAwMC9zdmciIHhtbG5zOnhsaW5rPSJodHRwOi8vd3d3LnczLm9yZy8xOTk5L3hsaW5rIiBjb250ZW50U3R5bGVUeXBlPSJ0ZXh0L2NzcyIgaGVpZ2h0PSIxNTYxcHgiIHByZXNlcnZlQXNwZWN0UmF0aW89Im5vbmUiIHN0eWxlPSJ3aWR0aDoxNjUycHg7aGVpZ2h0OjE1NjFweDtiYWNrZ3JvdW5kOiNGRkZGRkY7IiB2ZXJzaW9uPSIxLjEiIHZpZXdCb3g9IjAgMCAxNjUyIDE1NjEiIHdpZHRoPSIxNjUycHgiIHpvb21BbmRQYW49Im1hZ25pZnkiPjxkZWZzLz48Zz48cmVjdCBmaWxsPSIjRjFGMUYxIiBoZWlnaHQ9IjM0Ljk4NDQiIHJ4PSIxMi41IiByeT0iMTIuNSIgc3R5bGU9InN0cm9rZTojMTgxODE4O3N0cm9rZS13aWR0aDoxLjU7IiB3aWR0aD0iNjIiIHg9IjEwIiB5PSI3NjIuMjg5MSIvPjx0ZXh0IGZpbGw9IiMwMDAwMDAiIGZvbnQtZmFtaWx5PSJzYW5zLXNlcmlmIiBmb250LXNpemU9IjE0IiBsZW5ndGhBZGp1c3Q9InNwYWNpbmciIHRleHRMZW5ndGg9IjQyIiB4PSIyMCIgeT0iNzg1LjUyMzQiPll1dWRvbjwvdGV4dD48cmVjdCBmaWxsPSIjRjFGMUYxIiBoZWlnaHQ9IjM0Ljk4NDQiIHJ4PSIxMi41IiByeT0iMTIuNSIgc3R5bGU9InN0cm9rZTojMTgxODE4O3N0cm9rZS13aWR0aDoxLjU7IiB3aWR0aD0iNTExIiB4PSIxMjIiIHk9IjIzOS45Mzc1Ii8+PHRleHQgZmlsbD0iIzAwMDAwMCIgZm9udC1mYW1pbHk9InNhbnMtc2VyaWYiIGZvbnQtc2l6ZT0iMTQiIGxlbmd0aEFkanVzdD0ic3BhY2luZyIgdGV4dExlbmd0aD0iNDkxIiB4PSIxMzIiIHk9IjI2My4xNzE5Ij5QZXJiZWRhYW4gTG9naWthIEZ1enp5IFRzdWthbW90byBkZW5nYW4gTWV0b2RlIEluZmVyZW5zaSBGdXp6eSBMYWlubnlhPC90ZXh0PjxyZWN0IGZpbGw9IiNGMUYxRjEiIGhlaWdodD0iMzQuOTg0NCIgcng9IjEyLjUiIHJ5PSIxMi41IiBzdHlsZT0ic3Ryb2tlOiMxODE4MTg7c3Ryb2tlLXdpZHRoOjEuNTsiIHdpZHRoPSI4MyIgeD0iNjgzIiB5PSIxNTcuNDYwOSIvPjx0ZXh0IGZpbGw9IiMwMDAwMDAiIGZvbnQtZmFtaWx5PSJzYW5zLXNlcmlmIiBmb250LXNpemU9IjE0IiBsZW5ndGhBZGp1c3Q9InNwYWNpbmciIHRleHRMZW5ndGg9IjYzIiB4PSI2OTMiIHk9IjE4MC42OTUzIj5QZXJiZWRhYW48L3RleHQ+PHJlY3QgZmlsbD0iI0YxRjFGMSIgaGVpZ2h0PSIzNC45ODQ0IiByeD0iMTIuNSIgcnk9IjEyLjUiIHN0eWxlPSJzdHJva2U6IzE4MTgxODtzdHJva2Utd2lkdGg6MS41OyIgd2lkdGg9Ijg0IiB4PSI4MTYiIHk9IjQ3LjQ5MjIiLz48dGV4dCBmaWxsPSIjMDAwMDAwIiBmb250LWZhbWlseT0ic2Fucy1zZXJpZiIgZm9udC1zaXplPSIxNCIgbGVuZ3RoQWRqdXN0PSJzcGFjaW5nIiB0ZXh0TGVuZ3RoPSI2NCIgeD0iODI2IiB5PSI3MC43MjY2Ij5Uc3VrYW1vdG88L3RleHQ+PHJlY3QgZmlsbD0iI0YxRjFGMSIgaGVpZ2h0PSIzNC45ODQ0IiByeD0iMTIuNSIgcnk9IjEyLjUiIHN0eWxlPSJzdHJva2U6IzE4MTgxODtzdHJva2Utd2lkdGg6MS41OyIgd2lkdGg9IjI1MiIgeD0iOTUwIiB5PSIyMCIvPjx0ZXh0IGZpbGw9IiMwMDAwMDAiIGZvbnQtZmFtaWx5PSJzYW5zLXNlcmlmIiBmb250LXNpemU9IjE0IiBsZW5ndGhBZGp1c3Q9InNwYWNpbmciIHRleHRMZW5ndGg9IjIzMiIgeD0iOTYwIiB5PSI0My4yMzQ0Ij5GdW5nc2kga2Vhbmdnb3RhYW4gb3V0cHV0IG1vbm90b248L3RleHQ+PHBhdGggZD0iTTkwMCw2NC45ODQ0IEw5MTAsNjQuOTg0NCBDOTI1LDY0Ljk4NDQgOTI1LDM3LjQ5MjIgOTQwLDM3LjQ5MjIgTDk1MCwzNy40OTIyICIgZmlsbD0ibm9uZSIgc3R5bGU9InN0cm9rZTojMTgxODE4O3N0cm9rZS13aWR0aDoxLjA7Ii8+PHJlY3QgZmlsbD0iI0YxRjFGMSIgaGVpZ2h0PSIzNC45ODQ0IiByeD0iMTIuNSIgcnk9IjEyLjUiIHN0eWxlPSJzdHJva2U6IzE4MTgxODtzdHJva2Utd2lkdGg6MS41OyIgd2lkdGg9IjMwOCIgeD0iOTUwIiB5PSI3NC45ODQ0Ii8+PHRleHQgZmlsbD0iIzAwMDAwMCIgZm9udC1mYW1pbHk9InNhbnMtc2VyaWYiIGZvbnQtc2l6ZT0iMTQiIGxlbmd0aEFkanVzdD0ic3BhY2luZyIgdGV4dExlbmd0aD0iMjg4IiB4PSI5NjAiIHk9Ijk4LjIxODgiPkRlZnV6emlmaWthc2kgZGVuZ2FuIHJhdGEtcmF0YSB0ZXJ0aW1iYW5nPC90ZXh0PjxwYXRoIGQ9Ik05MDAsNjQuOTg0NCBMOTEwLDY0Ljk4NDQgQzkyNSw2NC45ODQ0IDkyNSw5Mi40NzY2IDk0MCw5Mi40NzY2IEw5NTAsOTIuNDc2NiAiIGZpbGw9Im5vbmUiIHN0eWxlPSJzdHJva2U6IzE4MTgxODtzdHJva2Utd2lkdGg6MS4wOyIvPjxwYXRoIGQ9Ik03NjYsMTc0Ljk1MzEgTDc3NiwxNzQuOTUzMSBDNzkxLDE3NC45NTMxIDc5MSw2NC45ODQ0IDgwNiw2NC45ODQ0IEw4MTYsNjQuOTg0NCAiIGZpbGw9Im5vbmUiIHN0eWxlPSJzdHJva2U6IzE4MTgxODtzdHJva2Utd2lkdGg6MS4wOyIvPjxyZWN0IGZpbGw9IiNGMUYxRjEiIGhlaWdodD0iMzQuOTg0NCIgcng9IjEyLjUiIHJ5PSIxMi41IiBzdHlsZT0ic3Ryb2tlOiMxODE4MTg7c3Ryb2tlLXdpZHRoOjEuNTsiIHdpZHRoPSI3MCIgeD0iODE2IiB5PSIxNTcuNDYwOSIvPjx0ZXh0IGZpbGw9IiMwMDAwMDAiIGZvbnQtZmFtaWx5PSJzYW5zLXNlcmlmIiBmb250LXNpemU9IjE0IiBsZW5ndGhBZGp1c3Q9InNwYWNpbmciIHRleHRMZW5ndGg9IjUwIiB4PSI4MjYiIHk9IjE4MC42OTUzIj5NYW1kYW5pPC90ZXh0PjxyZWN0IGZpbGw9IiNGMUYxRjEiIGhlaWdodD0iMzQuOTg0NCIgcng9IjEyLjUiIHJ5PSIxMi41IiBzdHlsZT0ic3Ryb2tlOiMxODE4MTg7c3Ryb2tlLXdpZHRoOjEuNTsiIHdpZHRoPSIzNDkiIHg9IjkzNiIgeT0iMTI5Ljk2ODgiLz48dGV4dCBmaWxsPSIjMDAwMDAwIiBmb250LWZhbWlseT0ic2Fucy1zZXJpZiIgZm9udC1zaXplPSIxNCIgbGVuZ3RoQWRqdXN0PSJzcGFjaW5nIiB0ZXh0TGVuZ3RoPSIzMjkiIHg9Ijk0NiIgeT0iMTUzLjIwMzEiPkZ1bmdzaSBrZWFuZ2dvdGFhbiBmdXp6eSB1bnR1ayBpbnB1dCBkYW4gb3V0cHV0PC90ZXh0PjxwYXRoIGQ9Ik04ODYsMTc0Ljk1MzEgTDg5NiwxNzQuOTUzMSBDOTExLDE3NC45NTMxIDkxMSwxNDcuNDYwOSA5MjYsMTQ3LjQ2MDkgTDkzNiwxNDcuNDYwOSAiIGZpbGw9Im5vbmUiIHN0eWxlPSJzdHJva2U6IzE4MTgxODtzdHJva2Utd2lkdGg6MS4wOyIvPjxyZWN0IGZpbGw9IiNGMUYxRjEiIGhlaWdodD0iMzQuOTg0NCIgcng9IjEyLjUiIHJ5PSIxMi41IiBzdHlsZT0ic3Ryb2tlOiMxODE4MTg7c3Ryb2tlLXdpZHRoOjEuNTsiIHdpZHRoPSIzNDYiIHg9IjkzNiIgeT0iMTg0Ljk1MzEiLz48dGV4dCBmaWxsPSIjMDAwMDAwIiBmb250LWZhbWlseT0ic2Fucy1zZXJpZiIgZm9udC1zaXplPSIxNCIgbGVuZ3RoQWRqdXN0PSJzcGFjaW5nIiB0ZXh0TGVuZ3RoPSIzMjYiIHg9Ijk0NiIgeT0iMjA4LjE4NzUiPkRlZnV6emlmaWthc2kgbWVuZ2d1bmFrYW4gbWF4LW1pbiBhdGF1IG1heC1kb3Q8L3RleHQ+PHBhdGggZD0iTTg4NiwxNzQuOTUzMSBMODk2LDE3NC45NTMxIEM5MTEsMTc0Ljk1MzEgOTExLDIwMi40NDUzIDkyNiwyMDIuNDQ1MyBMOTM2LDIwMi40NDUzICIgZmlsbD0ibm9uZSIgc3R5bGU9InN0cm9rZTojMTgxODE4O3N0cm9rZS13aWR0aDoxLjA7Ii8+PHBhdGggZD0iTTc2NiwxNzQuOTUzMSBMNzc2LDE3NC45NTMxIEM3OTEsMTc0Ljk1MzEgNzkxLDE3NC45NTMxIDgwNiwxNzQuOTUzMSBMODE2LDE3NC45NTMxICIgZmlsbD0ibm9uZSIgc3R5bGU9InN0cm9rZTojMTgxODE4O3N0cm9rZS13aWR0aDoxLjA7Ii8+PHJlY3QgZmlsbD0iI0YxRjFGMSIgaGVpZ2h0PSIzNC45ODQ0IiByeD0iMTIuNSIgcnk9IjEyLjUiIHN0eWxlPSJzdHJva2U6IzE4MTgxODtzdHJva2Utd2lkdGg6MS41OyIgd2lkdGg9IjYyIiB4PSI4MTYiIHk9IjI2Ny40Mjk3Ii8+PHRleHQgZmlsbD0iIzAwMDAwMCIgZm9udC1mYW1pbHk9InNhbnMtc2VyaWYiIGZvbnQtc2l6ZT0iMTQiIGxlbmd0aEFkanVzdD0ic3BhY2luZyIgdGV4dExlbmd0aD0iNDIiIHg9IjgyNiIgeT0iMjkwLjY2NDEiPlN1Z2VubzwvdGV4dD48cmVjdCBmaWxsPSIjRjFGMUYxIiBoZWlnaHQ9IjM0Ljk4NDQiIHJ4PSIxMi41IiByeT0iMTIuNSIgc3R5bGU9InN0cm9rZTojMTgxODE4O3N0cm9rZS13aWR0aDoxLjU7IiB3aWR0aD0iMzM3IiB4PSI5MjgiIHk9IjIzOS45Mzc1Ii8+PHRleHQgZmlsbD0iIzAwMDAwMCIgZm9udC1mYW1pbHk9InNhbnMtc2VyaWYiIGZvbnQtc2l6ZT0iMTQiIGxlbmd0aEFkanVzdD0ic3BhY2luZyIgdGV4dExlbmd0aD0iMzE3IiB4PSI5MzgiIHk9IjI2My4xNzE5Ij5HYWJ1bmdhbiBsb2dpa2EgZnV6enkgZGVuZ2FuIGZ1bmdzaSBtYXRlbWF0aWs8L3RleHQ+PHBhdGggZD0iTTg3OCwyODQuOTIxOSBMODg4LDI4NC45MjE5IEM5MDMsMjg0LjkyMTkgOTAzLDI1Ny40Mjk3IDkxOCwyNTcuNDI5NyBMOTI4LDI1Ny40Mjk3ICIgZmlsbD0ibm9uZSIgc3R5bGU9InN0cm9rZTojMTgxODE4O3N0cm9rZS13aWR0aDoxLjA7Ii8+PHJlY3QgZmlsbD0iI0YxRjFGMSIgaGVpZ2h0PSIzNC45ODQ0IiByeD0iMTIuNSIgcnk9IjEyLjUiIHN0eWxlPSJzdHJva2U6IzE4MTgxODtzdHJva2Utd2lkdGg6MS41OyIgd2lkdGg9IjE0MCIgeD0iOTI4IiB5PSIyOTQuOTIxOSIvPjx0ZXh0IGZpbGw9IiMwMDAwMDAiIGZvbnQtZmFtaWx5PSJzYW5zLXNlcmlmIiBmb250LXNpemU9IjE0IiBsZW5ndGhBZGp1c3Q9InNwYWNpbmciIHRleHRMZW5ndGg9IjEyMCIgeD0iOTM4IiB5PSIzMTguMTU2MyI+RWZpc2llbiBrb21wdXRhc2k8L3RleHQ+PHBhdGggZD0iTTg3OCwyODQuOTIxOSBMODg4LDI4NC45MjE5IEM5MDMsMjg0LjkyMTkgOTAzLDMxMi40MTQxIDkxOCwzMTIuNDE0MSBMOTI4LDMxMi40MTQxICIgZmlsbD0ibm9uZSIgc3R5bGU9InN0cm9rZTojMTgxODE4O3N0cm9rZS13aWR0aDoxLjA7Ii8+PHBhdGggZD0iTTc2NiwxNzQuOTUzMSBMNzc2LDE3NC45NTMxIEM3OTEsMTc0Ljk1MzEgNzkxLDI4NC45MjE5IDgwNiwyODQuOTIxOSBMODE2LDI4NC45MjE5ICIgZmlsbD0ibm9uZSIgc3R5bGU9InN0cm9rZTojMTgxODE4O3N0cm9rZS13aWR0aDoxLjA7Ii8+PHBhdGggZD0iTTYzMywyNTcuNDI5NyBMNjQzLDI1Ny40Mjk3IEM2NTgsMjU3LjQyOTcgNjU4LDE3NC45NTMxIDY3MywxNzQuOTUzMSBMNjgzLDE3NC45NTMxICIgZmlsbD0ibm9uZSIgc3R5bGU9InN0cm9rZTojMTgxODE4O3N0cm9rZS13aWR0aDoxLjA7Ii8+PHJlY3QgZmlsbD0iI0YxRjFGMSIgaGVpZ2h0PSIzNC45ODQ0IiByeD0iMTIuNSIgcnk9IjEyLjUiIHN0eWxlPSJzdHJva2U6IzE4MTgxODtzdHJva2Utd2lkdGg6MS41OyIgd2lkdGg9IjE2MSIgeD0iNjgzIiB5PSIzNzcuMzk4NCIvPjx0ZXh0IGZpbGw9IiMwMDAwMDAiIGZvbnQtZmFtaWx5PSJzYW5zLXNlcmlmIiBmb250LXNpemU9IjE0IiBsZW5ndGhBZGp1c3Q9InNwYWNpbmciIHRleHRMZW5ndGg9IjE0MSIgeD0iNjkzIiB5PSI0MDAuNjMyOCI+S2V1bmdndWxhbiBUc3VrYW1vdG88L3RleHQ+PHJlY3QgZmlsbD0iI0YxRjFGMSIgaGVpZ2h0PSIzNC45ODQ0IiByeD0iMTIuNSIgcnk9IjEyLjUiIHN0eWxlPSJzdHJva2U6IzE4MTgxODtzdHJva2Utd2lkdGg6MS41OyIgd2lkdGg9IjE4OCIgeD0iODk0IiB5PSIzNDkuOTA2MyIvPjx0ZXh0IGZpbGw9IiMwMDAwMDAiIGZvbnQtZmFtaWx5PSJzYW5zLXNlcmlmIiBmb250LXNpemU9IjE0IiBsZW5ndGhBZGp1c3Q9InNwYWNpbmciIHRleHRMZW5ndGg9IjE2OCIgeD0iOTA0IiB5PSIzNzMuMTQwNiI+T3V0cHV0IGhhbHVzIGRhbiBrb250aW51PC90ZXh0PjxwYXRoIGQ9Ik04NDQsMzk0Ljg5MDYgTDg1NCwzOTQuODkwNiBDODY5LDM5NC44OTA2IDg2OSwzNjcuMzk4NCA4ODQsMzY3LjM5ODQgTDg5NCwzNjcuMzk4NCAiIGZpbGw9Im5vbmUiIHN0eWxlPSJzdHJva2U6IzE4MTgxODtzdHJva2Utd2lkdGg6MS4wOyIvPjxyZWN0IGZpbGw9IiNGMUYxRjEiIGhlaWdodD0iMzQuOTg0NCIgcng9IjEyLjUiIHJ5PSIxMi41IiBzdHlsZT0ic3Ryb2tlOiMxODE4MTg7c3Ryb2tlLXdpZHRoOjEuNTsiIHdpZHRoPSIzODAiIHg9Ijg5NCIgeT0iNDA0Ljg5MDYiLz48dGV4dCBmaWxsPSIjMDAwMDAwIiBmb250LWZhbWlseT0ic2Fucy1zZXJpZiIgZm9udC1zaXplPSIxNCIgbGVuZ3RoQWRqdXN0PSJzcGFjaW5nIiB0ZXh0TGVuZ3RoPSIzNjAiIHg9IjkwNCIgeT0iNDI4LjEyNSI+Q29jb2sgdW50dWsgYXBsaWthc2kgeWFuZyBtZW1idXR1aGthbiByZXNwb25zIG11bHVzPC90ZXh0PjxwYXRoIGQ9Ik04NDQsMzk0Ljg5MDYgTDg1NCwzOTQuODkwNiBDODY5LDM5NC44OTA2IDg2OSw0MjIuMzgyOCA4ODQsNDIyLjM4MjggTDg5NCw0MjIuMzgyOCAiIGZpbGw9Im5vbmUiIHN0eWxlPSJzdHJva2U6IzE4MTgxODtzdHJva2Utd2lkdGg6MS4wOyIvPjxwYXRoIGQ9Ik02MzMsMjU3LjQyOTcgTDY0MywyNTcuNDI5NyBDNjU4LDI1Ny40Mjk3IDY1OCwzOTQuODkwNiA2NzMsMzk0Ljg5MDYgTDY4MywzOTQuODkwNiAiIGZpbGw9Im5vbmUiIHN0eWxlPSJzdHJva2U6IzE4MTgxODtzdHJva2Utd2lkdGg6MS4wOyIvPjxyZWN0IGZpbGw9IiNGMUYxRjEiIGhlaWdodD0iMzQuOTg0NCIgcng9IjEyLjUiIHJ5PSIxMi41IiBzdHlsZT0ic3Ryb2tlOiMxODE4MTg7c3Ryb2tlLXdpZHRoOjEuNTsiIHdpZHRoPSIxNTUiIHg9IjY4MyIgeT0iNDU5Ljg3NSIvPjx0ZXh0IGZpbGw9IiMwMDAwMDAiIGZvbnQtZmFtaWx5PSJzYW5zLXNlcmlmIiBmb250LXNpemU9IjE0IiBsZW5ndGhBZGp1c3Q9InNwYWNpbmciIHRleHRMZW5ndGg9IjEzNSIgeD0iNjkzIiB5PSI0ODMuMTA5NCI+S2VsZW1haGFuIFRzdWthbW90bzwvdGV4dD48cmVjdCBmaWxsPSIjRjFGMUYxIiBoZWlnaHQ9IjM0Ljk4NDQiIHJ4PSIxMi41IiByeT0iMTIuNSIgc3R5bGU9InN0cm9rZTojMTgxODE4O3N0cm9rZS13aWR0aDoxLjU7IiB3aWR0aD0iMzY3IiB4PSI4ODgiIHk9IjQ1OS44NzUiLz48dGV4dCBmaWxsPSIjMDAwMDAwIiBmb250LWZhbWlseT0ic2Fucy1zZXJpZiIgZm9udC1zaXplPSIxNCIgbGVuZ3RoQWRqdXN0PSJzcGFjaW5nIiB0ZXh0TGVuZ3RoPSIzNDciIHg9Ijg5OCIgeT0iNDgzLjEwOTQiPlBlcnN5YXJhdGFuIG1vbm90b25pdGFzIGRhcGF0IG1lbWJhdGFzaSBrZWx1d2VzYW48L3RleHQ+PHBhdGggZD0iTTgzOCw0NzcuMzY3MiBMODQ4LDQ3Ny4zNjcyIEM4NjMsNDc3LjM2NzIgODYzLDQ3Ny4zNjcyIDg3OCw0NzcuMzY3MiBMODg4LDQ3Ny4zNjcyICIgZmlsbD0ibm9uZSIgc3R5bGU9InN0cm9rZTojMTgxODE4O3N0cm9rZS13aWR0aDoxLjA7Ii8+PHBhdGggZD0iTTYzMywyNTcuNDI5NyBMNjQzLDI1Ny40Mjk3IEM2NTgsMjU3LjQyOTcgNjU4LDQ3Ny4zNjcyIDY3Myw0NzcuMzY3MiBMNjgzLDQ3Ny4zNjcyICIgZmlsbD0ibm9uZSIgc3R5bGU9InN0cm9rZTojMTgxODE4O3N0cm9rZS13aWR0aDoxLjA7Ii8+PHBhdGggZD0iTTcyLDc3OS43ODEzIEw4Miw3NzkuNzgxMyBDOTcsNzc5Ljc4MTMgOTcsMjU3LjQyOTcgMTEyLDI1Ny40Mjk3IEwxMjIsMjU3LjQyOTcgIiBmaWxsPSJub25lIiBzdHlsZT0ic3Ryb2tlOiMxODE4MTg7c3Ryb2tlLXdpZHRoOjEuMDsiLz48cmVjdCBmaWxsPSIjRjFGMUYxIiBoZWlnaHQ9IjM0Ljk4NDQiIHJ4PSIxMi41IiByeT0iMTIuNSIgc3R5bGU9InN0cm9rZTojMTgxODE4O3N0cm9rZS13aWR0aDoxLjU7IiB3aWR0aD0iMzYzIiB4PSIxMjIiIHk9Ijc2Mi4yODkxIi8+PHRleHQgZmlsbD0iIzAwMDAwMCIgZm9udC1mYW1pbHk9InNhbnMtc2VyaWYiIGZvbnQtc2l6ZT0iMTQiIGxlbmd0aEFkanVzdD0ic3BhY2luZyIgdGV4dExlbmd0aD0iMzQzIiB4PSIxMzIiIHk9Ijc4NS41MjM0Ij5FdmFsdWFzaSBLaW5lcmphIE1vZGVsIFNWTSB1bnR1ayBLbGFzaWZpa2FzaSBUZWtzPC90ZXh0PjxyZWN0IGZpbGw9IiNGMUYxRjEiIGhlaWdodD0iMzQuOTg0NCIgcng9IjEyLjUiIHJ5PSIxMi41IiBzdHlsZT0ic3Ryb2tlOiMxODE4MTg7c3Ryb2tlLXdpZHRoOjEuNTsiIHdpZHRoPSIxMTgiIHg9IjUzNSIgeT0iNzYyLjI4OTEiLz48dGV4dCBmaWxsPSIjMDAwMDAwIiBmb250LWZhbWlseT0ic2Fucy1zZXJpZiIgZm9udC1zaXplPSIxNCIgbGVuZ3RoQWRqdXN0PSJzcGFjaW5nIiB0ZXh0TGVuZ3RoPSI5OCIgeD0iNTQ1IiB5PSI3ODUuNTIzNCI+TWV0cmlrIFJlbGV2YW48L3RleHQ+PHJlY3QgZmlsbD0iI0YxRjFGMSIgaGVpZ2h0PSIzNC45ODQ0IiByeD0iMTIuNSIgcnk9IjEyLjUiIHN0eWxlPSJzdHJva2U6IzE4MTgxODtzdHJva2Utd2lkdGg6MS41OyIgd2lkdGg9IjY5IiB4PSI3MDMiIHk9IjU0Mi4zNTE2Ii8+PHRleHQgZmlsbD0iIzAwMDAwMCIgZm9udC1mYW1pbHk9InNhbnMtc2VyaWYiIGZvbnQtc2l6ZT0iMTQiIGxlbmd0aEFkanVzdD0ic3BhY2luZyIgdGV4dExlbmd0aD0iNDkiIHg9IjcxMyIgeT0iNTY1LjU4NTkiPkFrdXJhc2k8L3RleHQ+PHJlY3QgZmlsbD0iI0YxRjFGMSIgaGVpZ2h0PSIzNC45ODQ0IiByeD0iMTIuNSIgcnk9IjEyLjUiIHN0eWxlPSJzdHJva2U6IzE4MTgxODtzdHJva2Utd2lkdGg6MS41OyIgd2lkdGg9IjMyOCIgeD0iODIyIiB5PSI1MTQuODU5NCIvPjx0ZXh0IGZpbGw9IiMwMDAwMDAiIGZvbnQtZmFtaWx5PSJzYW5zLXNlcmlmIiBmb250LXNpemU9IjE0IiBsZW5ndGhBZGp1c3Q9InNwYWNpbmciIHRleHRMZW5ndGg9IjMwOCIgeD0iODMyIiB5PSI1MzguMDkzOCI+UmFzaW8gcHJlZGlrc2kgYmVuYXIgdGVyaGFkYXAgdG90YWwgcHJlZGlrc2k8L3RleHQ+PHBhdGggZD0iTTc3Miw1NTkuODQzOCBMNzgyLDU1OS44NDM4IEM3OTcsNTU5Ljg0MzggNzk3LDUzMi4zNTE2IDgxMiw1MzIuMzUxNiBMODIyLDUzMi4zNTE2ICIgZmlsbD0ibm9uZSIgc3R5bGU9InN0cm9rZTojMTgxODE4O3N0cm9rZS13aWR0aDoxLjA7Ii8+PHJlY3QgZmlsbD0iI0YxRjFGMSIgaGVpZ2h0PSIzNC45ODQ0IiByeD0iMTIuNSIgcnk9IjEyLjUiIHN0eWxlPSJzdHJva2U6IzE4MTgxODtzdHJva2Utd2lkdGg6MS41OyIgd2lkdGg9IjMwMSIgeD0iODIyIiB5PSI1NjkuODQzOCIvPjx0ZXh0IGZpbGw9IiMwMDAwMDAiIGZvbnQtZmFtaWx5PSJzYW5zLXNlcmlmIiBmb250LXNpemU9IjE0IiBsZW5ndGhBZGp1c3Q9InNwYWNpbmciIHRleHRMZW5ndGg9IjI4MSIgeD0iODMyIiB5PSI1OTMuMDc4MSI+VGlkYWsgY29jb2sgdW50dWsgZGF0YXNldCB0aWRhayBzZWltYmFuZzwvdGV4dD48cGF0aCBkPSJNNzcyLDU1OS44NDM4IEw3ODIsNTU5Ljg0MzggQzc5Nyw1NTkuODQzOCA3OTcsNTg3LjMzNTkgODEyLDU4Ny4zMzU5IEw4MjIsNTg3LjMzNTkgIiBmaWxsPSJub25lIiBzdHlsZT0ic3Ryb2tlOiMxODE4MTg7c3Ryb2tlLXdpZHRoOjEuMDsiLz48cGF0aCBkPSJNNjUzLDc3OS43ODEzIEw2NjMsNzc5Ljc4MTMgQzY3OCw3NzkuNzgxMyA2NzgsNTU5Ljg0MzggNjkzLDU1OS44NDM4IEw3MDMsNTU5Ljg0MzggIiBmaWxsPSJub25lIiBzdHlsZT0ic3Ryb2tlOiMxODE4MTg7c3Ryb2tlLXdpZHRoOjEuMDsiLz48cmVjdCBmaWxsPSIjRjFGMUYxIiBoZWlnaHQ9IjM0Ljk4NDQiIHJ4PSIxMi41IiByeT0iMTIuNSIgc3R5bGU9InN0cm9rZTojMTgxODE4O3N0cm9rZS13aWR0aDoxLjU7IiB3aWR0aD0iNjkiIHg9IjcwMyIgeT0iNjUyLjMyMDMiLz48dGV4dCBmaWxsPSIjMDAwMDAwIiBmb250LWZhbWlseT0ic2Fucy1zZXJpZiIgZm9udC1zaXplPSIxNCIgbGVuZ3RoQWRqdXN0PSJzcGFjaW5nIiB0ZXh0TGVuZ3RoPSI0OSIgeD0iNzEzIiB5PSI2NzUuNTU0NyI+UHJlc2lzaTwvdGV4dD48cmVjdCBmaWxsPSIjRjFGMUYxIiBoZWlnaHQ9IjM0Ljk4NDQiIHJ4PSIxMi41IiByeT0iMTIuNSIgc3R5bGU9InN0cm9rZTojMTgxODE4O3N0cm9rZS13aWR0aDoxLjU7IiB3aWR0aD0iMjcyIiB4PSI4MjIiIHk9IjYyNC44MjgxIi8+PHRleHQgZmlsbD0iIzAwMDAwMCIgZm9udC1mYW1pbHk9InNhbnMtc2VyaWYiIGZvbnQtc2l6ZT0iMTQiIGxlbmd0aEFkanVzdD0ic3BhY2luZyIgdGV4dExlbmd0aD0iMjUyIiB4PSI4MzIiIHk9IjY0OC4wNjI1Ij5Qcm9wb3JzaSBwcmVkaWtzaSBwb3NpdGlmIHlhbmcgYmVuYXI8L3RleHQ+PHBhdGggZD0iTTc3Miw2NjkuODEyNSBMNzgyLDY2OS44MTI1IEM3OTcsNjY5LjgxMjUgNzk3LDY0Mi4zMjAzIDgxMiw2NDIuMzIwMyBMODIyLDY0Mi4zMjAzICIgZmlsbD0ibm9uZSIgc3R5bGU9InN0cm9rZTojMTgxODE4O3N0cm9rZS13aWR0aDoxLjA7Ii8+PHJlY3QgZmlsbD0iI0YxRjFGMSIgaGVpZ2h0PSIzNC45ODQ0IiByeD0iMTIuNSIgcnk9IjEyLjUiIHN0eWxlPSJzdHJva2U6IzE4MTgxODtzdHJva2Utd2lkdGg6MS41OyIgd2lkdGg9IjI3OSIgeD0iODIyIiB5PSI2NzkuODEyNSIvPjx0ZXh0IGZpbGw9IiMwMDAwMDAiIGZvbnQtZmFtaWx5PSJzYW5zLXNlcmlmIiBmb250LXNpemU9IjE0IiBsZW5ndGhBZGp1c3Q9InNwYWNpbmciIHRleHRMZW5ndGg9IjI1OSIgeD0iODMyIiB5PSI3MDMuMDQ2OSI+UGVudGluZyBqaWthIGZhbHNlIHBvc2l0aXZlIGRpaGluZGFyaTwvdGV4dD48cGF0aCBkPSJNNzcyLDY2OS44MTI1IEw3ODIsNjY5LjgxMjUgQzc5Nyw2NjkuODEyNSA3OTcsNjk3LjMwNDcgODEyLDY5Ny4zMDQ3IEw4MjIsNjk3LjMwNDcgIiBmaWxsPSJub25lIiBzdHlsZT0ic3Ryb2tlOiMxODE4MTg7c3Ryb2tlLXdpZHRoOjEuMDsiLz48cGF0aCBkPSJNNjUzLDc3OS43ODEzIEw2NjMsNzc5Ljc4MTMgQzY3OCw3NzkuNzgxMyA2NzgsNjY5LjgxMjUgNjkzLDY2OS44MTI1IEw3MDMsNjY5LjgxMjUgIiBmaWxsPSJub25lIiBzdHlsZT0ic3Ryb2tlOiMxODE4MTg7c3Ryb2tlLXdpZHRoOjEuMDsiLz48cmVjdCBmaWxsPSIjRjFGMUYxIiBoZWlnaHQ9IjM0Ljk4NDQiIHJ4PSIxMi41IiByeT0iMTIuNSIgc3R5bGU9InN0cm9rZTojMTgxODE4O3N0cm9rZS13aWR0aDoxLjU7IiB3aWR0aD0iMTY5IiB4PSI3MDMiIHk9Ijc2Mi4yODkxIi8+PHRleHQgZmlsbD0iIzAwMDAwMCIgZm9udC1mYW1pbHk9InNhbnMtc2VyaWYiIGZvbnQtc2l6ZT0iMTQiIGxlbmd0aEFkanVzdD0ic3BhY2luZyIgdGV4dExlbmd0aD0iMTQ5IiB4PSI3MTMiIHk9Ijc4NS41MjM0Ij5SZWNhbGwgKFNlbnNpdGl2aXRhcyk8L3RleHQ+PHJlY3QgZmlsbD0iI0YxRjFGMSIgaGVpZ2h0PSIzNC45ODQ0IiByeD0iMTIuNSIgcnk9IjEyLjUiIHN0eWxlPSJzdHJva2U6IzE4MTgxODtzdHJva2Utd2lkdGg6MS41OyIgd2lkdGg9IjQxMiIgeD0iOTIyIiB5PSI3MzQuNzk2OSIvPjx0ZXh0IGZpbGw9IiMwMDAwMDAiIGZvbnQtZmFtaWx5PSJzYW5zLXNlcmlmIiBmb250LXNpemU9IjE0IiBsZW5ndGhBZGp1c3Q9InNwYWNpbmciIHRleHRMZW5ndGg9IjM5MiIgeD0iOTMyIiB5PSI3NTguMDMxMyI+UHJvcG9yc2kgcG9zaXRpZiBzZWJlbmFybnlhIHlhbmcgZGlwcmVkaWtzaSBkZW5nYW4gYmVuYXI8L3RleHQ+PHBhdGggZD0iTTg3Miw3NzkuNzgxMyBMODgyLDc3OS43ODEzIEM4OTcsNzc5Ljc4MTMgODk3LDc1Mi4yODkxIDkxMiw3NTIuMjg5MSBMOTIyLDc1Mi4yODkxICIgZmlsbD0ibm9uZSIgc3R5bGU9InN0cm9rZTojMTgxODE4O3N0cm9rZS13aWR0aDoxLjA7Ii8+PHJlY3QgZmlsbD0iI0YxRjFGMSIgaGVpZ2h0PSIzNC45ODQ0IiByeD0iMTIuNSIgcnk9IjEyLjUiIHN0eWxlPSJzdHJva2U6IzE4MTgxODtzdHJva2Utd2lkdGg6MS41OyIgd2lkdGg9IjI3OSIgeD0iOTIyIiB5PSI3ODkuNzgxMyIvPjx0ZXh0IGZpbGw9IiMwMDAwMDAiIGZvbnQtZmFtaWx5PSJzYW5zLXNlcmlmIiBmb250LXNpemU9IjE0IiBsZW5ndGhBZGp1c3Q9InNwYWNpbmciIHRleHRMZW5ndGg9IjI1OSIgeD0iOTMyIiB5PSI4MTMuMDE1NiI+UGVudGluZyBqaWthIGZhbHNlIG5lZ2F0aXZlIGRpaGluZGFyaTwvdGV4dD48cGF0aCBkPSJNODcyLDc3OS43ODEzIEw4ODIsNzc5Ljc4MTMgQzg5Nyw3NzkuNzgxMyA4OTcsODA3LjI3MzQgOTEyLDgwNy4yNzM0IEw5MjIsODA3LjI3MzQgIiBmaWxsPSJub25lIiBzdHlsZT0ic3Ryb2tlOiMxODE4MTg7c3Ryb2tlLXdpZHRoOjEuMDsiLz48cGF0aCBkPSJNNjUzLDc3OS43ODEzIEw2NjMsNzc5Ljc4MTMgQzY3OCw3NzkuNzgxMyA2NzgsNzc5Ljc4MTMgNjkzLDc3OS43ODEzIEw3MDMsNzc5Ljc4MTMgIiBmaWxsPSJub25lIiBzdHlsZT0ic3Ryb2tlOiMxODE4MTg7c3Ryb2tlLXdpZHRoOjEuMDsiLz48cmVjdCBmaWxsPSIjRjFGMUYxIiBoZWlnaHQ9IjM0Ljk4NDQiIHJ4PSIxMi41IiByeT0iMTIuNSIgc3R5bGU9InN0cm9rZTojMTgxODE4O3N0cm9rZS13aWR0aDoxLjU7IiB3aWR0aD0iNzYiIHg9IjcwMyIgeT0iODcyLjI1NzgiLz48dGV4dCBmaWxsPSIjMDAwMDAwIiBmb250LWZhbWlseT0ic2Fucy1zZXJpZiIgZm9udC1zaXplPSIxNCIgbGVuZ3RoQWRqdXN0PSJzcGFjaW5nIiB0ZXh0TGVuZ3RoPSI1NiIgeD0iNzEzIiB5PSI4OTUuNDkyMiI+RjEtU2NvcmU8L3RleHQ+PHJlY3QgZmlsbD0iI0YxRjFGMSIgaGVpZ2h0PSIzNC45ODQ0IiByeD0iMTIuNSIgcnk9IjEyLjUiIHN0eWxlPSJzdHJva2U6IzE4MTgxODtzdHJva2Utd2lkdGg6MS41OyIgd2lkdGg9IjI4MSIgeD0iODI5IiB5PSI4NDQuNzY1NiIvPjx0ZXh0IGZpbGw9IiMwMDAwMDAiIGZvbnQtZmFtaWx5PSJzYW5zLXNlcmlmIiBmb250LXNpemU9IjE0IiBsZW5ndGhBZGp1c3Q9InNwYWNpbmciIHRleHRMZW5ndGg9IjI2MSIgeD0iODM5IiB5PSI4NjgiPkhhcm1vbmljIG1lYW4gZGFyaSBwcmVzaXNpIGRhbiByZWNhbGw8L3RleHQ+PHBhdGggZD0iTTc3OSw4ODkuNzUgTDc4OSw4ODkuNzUgQzgwNCw4ODkuNzUgODA0LDg2Mi4yNTc4IDgxOSw4NjIuMjU3OCBMODI5LDg2Mi4yNTc4ICIgZmlsbD0ibm9uZSIgc3R5bGU9InN0cm9rZTojMTgxODE4O3N0cm9rZS13aWR0aDoxLjA7Ii8+PHJlY3QgZmlsbD0iI0YxRjFGMSIgaGVpZ2h0PSIzNC45ODQ0IiByeD0iMTIuNSIgcnk9IjEyLjUiIHN0eWxlPSJzdHJva2U6IzE4MTgxODtzdHJva2Utd2lkdGg6MS41OyIgd2lkdGg9IjI0NSIgeD0iODI5IiB5PSI4OTkuNzUiLz48dGV4dCBmaWxsPSIjMDAwMDAwIiBmb250LWZhbWlseT0ic2Fucy1zZXJpZiIgZm9udC1zaXplPSIxNCIgbGVuZ3RoQWRqdXN0PSJzcGFjaW5nIiB0ZXh0TGVuZ3RoPSIyMjUiIHg9IjgzOSIgeT0iOTIyLjk4NDQiPkJhaWsgdW50dWsga2VzZWltYmFuZ2FuIGtlZHVhbnlhPC90ZXh0PjxwYXRoIGQ9Ik03NzksODg5Ljc1IEw3ODksODg5Ljc1IEM4MDQsODg5Ljc1IDgwNCw5MTcuMjQyMiA4MTksOTE3LjI0MjIgTDgyOSw5MTcuMjQyMiAiIGZpbGw9Im5vbmUiIHN0eWxlPSJzdHJva2U6IzE4MTgxODtzdHJva2Utd2lkdGg6MS4wOyIvPjxwYXRoIGQ9Ik02NTMsNzc5Ljc4MTMgTDY2Myw3NzkuNzgxMyBDNjc4LDc3OS43ODEzIDY3OCw4ODkuNzUgNjkzLDg4OS43NSBMNzAzLDg4OS43NSAiIGZpbGw9Im5vbmUiIHN0eWxlPSJzdHJva2U6IzE4MTgxODtzdHJva2Utd2lkdGg6MS4wOyIvPjxyZWN0IGZpbGw9IiNGMUYxRjEiIGhlaWdodD0iMzQuOTg0NCIgcng9IjEyLjUiIHJ5PSIxMi41IiBzdHlsZT0ic3Ryb2tlOiMxODE4MTg7c3Ryb2tlLXdpZHRoOjEuNTsiIHdpZHRoPSIyNTMiIHg9IjcwMyIgeT0iOTgyLjIyNjYiLz48dGV4dCBmaWxsPSIjMDAwMDAwIiBmb250LWZhbWlseT0ic2Fucy1zZXJpZiIgZm9udC1zaXplPSIxNCIgbGVuZ3RoQWRqdXN0PSJzcGFjaW5nIiB0ZXh0TGVuZ3RoPSIyMzMiIHg9IjcxMyIgeT0iMTAwNS40NjA5Ij5ST0MtQVVDICh1bnR1ayBrbGFzaWZpa2FzaSBiaW5lcik8L3RleHQ+PHJlY3QgZmlsbD0iI0YxRjFGMSIgaGVpZ2h0PSIzNC45ODQ0IiByeD0iMTIuNSIgcnk9IjEyLjUiIHN0eWxlPSJzdHJva2U6IzE4MTgxODtzdHJva2Utd2lkdGg6MS41OyIgd2lkdGg9IjE4MiIgeD0iMTAwNiIgeT0iOTU0LjczNDQiLz48dGV4dCBmaWxsPSIjMDAwMDAwIiBmb250LWZhbWlseT0ic2Fucy1zZXJpZiIgZm9udC1zaXplPSIxNCIgbGVuZ3RoQWRqdXN0PSJzcGFjaW5nIiB0ZXh0TGVuZ3RoPSIxNjIiIHg9IjEwMTYiIHk9Ijk3Ny45Njg4Ij5BcmVhIGRpIGJhd2FoIGt1cnZhIFJPQzwvdGV4dD48cGF0aCBkPSJNOTU2LDk5OS43MTg4IEw5NjYsOTk5LjcxODggQzk4MSw5OTkuNzE4OCA5ODEsOTcyLjIyNjYgOTk2LDk3Mi4yMjY2IEwxMDA2LDk3Mi4yMjY2ICIgZmlsbD0ibm9uZSIgc3R5bGU9InN0cm9rZTojMTgxODE4O3N0cm9rZS13aWR0aDoxLjA7Ii8+PHJlY3QgZmlsbD0iI0YxRjFGMSIgaGVpZ2h0PSIzNC45ODQ0IiByeD0iMTIuNSIgcnk9IjEyLjUiIHN0eWxlPSJzdHJva2U6IzE4MTgxODtzdHJva2Utd2lkdGg6MS41OyIgd2lkdGg9IjMxMiIgeD0iMTAwNiIgeT0iMTAwOS43MTg4Ii8+PHRleHQgZmlsbD0iIzAwMDAwMCIgZm9udC1mYW1pbHk9InNhbnMtc2VyaWYiIGZvbnQtc2l6ZT0iMTQiIGxlbmd0aEFkanVzdD0ic3BhY2luZyIgdGV4dExlbmd0aD0iMjkyIiB4PSIxMDE2IiB5PSIxMDMyLjk1MzEiPk1lbmd1a3VyIGtlbWFtcHVhbiBtb2RlbCBtZW1pc2Foa2FuIGtlbGFzPC90ZXh0PjxwYXRoIGQ9Ik05NTYsOTk5LjcxODggTDk2Niw5OTkuNzE4OCBDOTgxLDk5OS43MTg4IDk4MSwxMDI3LjIxMDkgOTk2LDEwMjcuMjEwOSBMMTAwNiwxMDI3LjIxMDkgIiBmaWxsPSJub25lIiBzdHlsZT0ic3Ryb2tlOiMxODE4MTg7c3Ryb2tlLXdpZHRoOjEuMDsiLz48cGF0aCBkPSJNNjUzLDc3OS43ODEzIEw2NjMsNzc5Ljc4MTMgQzY3OCw3NzkuNzgxMyA2NzgsOTk5LjcxODggNjkzLDk5OS43MTg4IEw3MDMsOTk5LjcxODggIiBmaWxsPSJub25lIiBzdHlsZT0ic3Ryb2tlOiMxODE4MTg7c3Ryb2tlLXdpZHRoOjEuMDsiLz48cGF0aCBkPSJNNDg1LDc3OS43ODEzIEw0OTUsNzc5Ljc4MTMgQzUxMCw3NzkuNzgxMyA1MTAsNzc5Ljc4MTMgNTI1LDc3OS43ODEzIEw1MzUsNzc5Ljc4MTMgIiBmaWxsPSJub25lIiBzdHlsZT0ic3Ryb2tlOiMxODE4MTg7c3Ryb2tlLXdpZHRoOjEuMDsiLz48cGF0aCBkPSJNNzIsNzc5Ljc4MTMgTDgyLDc3OS43ODEzIEM5Nyw3NzkuNzgxMyA5Nyw3NzkuNzgxMyAxMTIsNzc5Ljc4MTMgTDEyMiw3NzkuNzgxMyAiIGZpbGw9Im5vbmUiIHN0eWxlPSJzdHJva2U6IzE4MTgxODtzdHJva2Utd2lkdGg6MS4wOyIvPjxyZWN0IGZpbGw9IiNGMUYxRjEiIGhlaWdodD0iMzQuOTg0NCIgcng9IjEyLjUiIHJ5PSIxMi41IiBzdHlsZT0ic3Ryb2tlOiMxODE4MTg7c3Ryb2tlLXdpZHRoOjEuNTsiIHdpZHRoPSI0OTMiIHg9IjEyMiIgeT0iMTE0Ny4xNzk3Ii8+PHRleHQgZmlsbD0iIzAwMDAwMCIgZm9udC1mYW1pbHk9InNhbnMtc2VyaWYiIGZvbnQtc2l6ZT0iMTQiIGxlbmd0aEFkanVzdD0ic3BhY2luZyIgdGV4dExlbmd0aD0iNDczIiB4PSIxMzIiIHk9IjExNzAuNDE0MSI+UGVyYmVkYWFuIEFudGFyYSBBTk4gRmVlZGZvcndhcmQgZGFuIFJlY3VycmVudCBOZXVyYWwgTmV0d29yayAoUk5OKTwvdGV4dD48cmVjdCBmaWxsPSIjRjFGMUYxIiBoZWlnaHQ9IjM0Ljk4NDQiIHJ4PSIxMi41IiByeT0iMTIuNSIgc3R5bGU9InN0cm9rZTojMTgxODE4O3N0cm9rZS13aWR0aDoxLjU7IiB3aWR0aD0iODMiIHg9IjY2NSIgeT0iMTExOS42ODc1Ii8+PHRleHQgZmlsbD0iIzAwMDAwMCIgZm9udC1mYW1pbHk9InNhbnMtc2VyaWYiIGZvbnQtc2l6ZT0iMTQiIGxlbmd0aEFkanVzdD0ic3BhY2luZyIgdGV4dExlbmd0aD0iNjMiIHg9IjY3NSIgeT0iMTE0Mi45MjE5Ij5QZXJiZWRhYW48L3RleHQ+PHJlY3QgZmlsbD0iI0YxRjFGMSIgaGVpZ2h0PSIzNC45ODQ0IiByeD0iMTIuNSIgcnk9IjEyLjUiIHN0eWxlPSJzdHJva2U6IzE4MTgxODtzdHJva2Utd2lkdGg6MS41OyIgd2lkdGg9IjEyNiIgeD0iNzk4IiB5PSIxMDY0LjcwMzEiLz48dGV4dCBmaWxsPSIjMDAwMDAwIiBmb250LWZhbWlseT0ic2Fucy1zZXJpZiIgZm9udC1zaXplPSIxNCIgbGVuZ3RoQWRqdXN0PSJzcGFjaW5nIiB0ZXh0TGVuZ3RoPSIxMDYiIHg9IjgwOCIgeT0iMTA4Ny45Mzc1Ij5BTk4gRmVlZGZvcndhcmQ8L3RleHQ+PHJlY3QgZmlsbD0iI0YxRjFGMSIgaGVpZ2h0PSIzNC45ODQ0IiByeD0iMTIuNSIgcnk9IjEyLjUiIHN0eWxlPSJzdHJva2U6IzE4MTgxODtzdHJva2Utd2lkdGg6MS41OyIgd2lkdGg9IjMzNiIgeD0iOTc0IiB5PSIxMDY0LjcwMzEiLz48dGV4dCBmaWxsPSIjMDAwMDAwIiBmb250LWZhbWlseT0ic2Fucy1zZXJpZiIgZm9udC1zaXplPSIxNCIgbGVuZ3RoQWRqdXN0PSJzcGFjaW5nIiB0ZXh0TGVuZ3RoPSIzMTYiIHg9Ijk4NCIgeT0iMTA4Ny45Mzc1Ij5EYXRhIG1lbmdhbGlyIGRhcmkgaW5wdXQga2Ugb3V0cHV0IHRhbnBhIGxvb3A8L3RleHQ+PHBhdGggZD0iTTkyNCwxMDgyLjE5NTMgTDkzNCwxMDgyLjE5NTMgQzk0OSwxMDgyLjE5NTMgOTQ5LDEwODIuMTk1MyA5NjQsMTA4Mi4xOTUzIEw5NzQsMTA4Mi4xOTUzICIgZmlsbD0ibm9uZSIgc3R5bGU9InN0cm9rZTojMTgxODE4O3N0cm9rZS13aWR0aDoxLjA7Ii8+PHBhdGggZD0iTTc0OCwxMTM3LjE3OTcgTDc1OCwxMTM3LjE3OTcgQzc3MywxMTM3LjE3OTcgNzczLDEwODIuMTk1MyA3ODgsMTA4Mi4xOTUzIEw3OTgsMTA4Mi4xOTUzICIgZmlsbD0ibm9uZSIgc3R5bGU9InN0cm9rZTojMTgxODE4O3N0cm9rZS13aWR0aDoxLjA7Ii8+PHJlY3QgZmlsbD0iI0YxRjFGMSIgaGVpZ2h0PSIzNC45ODQ0IiByeD0iMTIuNSIgcnk9IjEyLjUiIHN0eWxlPSJzdHJva2U6IzE4MTgxODtzdHJva2Utd2lkdGg6MS41OyIgd2lkdGg9IjQxIiB4PSI3OTgiIHk9IjExNDcuMTc5NyIvPjx0ZXh0IGZpbGw9IiMwMDAwMDAiIGZvbnQtZmFtaWx5PSJzYW5zLXNlcmlmIiBmb250LXNpemU9IjE0IiBsZW5ndGhBZGp1c3Q9InNwYWNpbmciIHRleHRMZW5ndGg9IjIxIiB4PSI4MDgiIHk9IjExNzAuNDE0MSI+Uk5OPC90ZXh0PjxyZWN0IGZpbGw9IiNGMUYxRjEiIGhlaWdodD0iMzQuOTg0NCIgcng9IjEyLjUiIHJ5PSIxMi41IiBzdHlsZT0ic3Ryb2tlOiMxODE4MTg7c3Ryb2tlLXdpZHRoOjEuNTsiIHdpZHRoPSIzNjAiIHg9Ijg4OSIgeT0iMTExOS42ODc1Ii8+PHRleHQgZmlsbD0iIzAwMDAwMCIgZm9udC1mYW1pbHk9InNhbnMtc2VyaWYiIGZvbnQtc2l6ZT0iMTQiIGxlbmd0aEFkanVzdD0ic3BhY2luZyIgdGV4dExlbmd0aD0iMzQwIiB4PSI4OTkiIHk9IjExNDIuOTIxOSI+TWVtaWxpa2kgbG9vcCB1bnR1ayBtZW5qYWdhIGluZm9ybWFzaSBzZWJlbHVtbnlhPC90ZXh0PjxwYXRoIGQ9Ik04MzksMTE2NC42NzE5IEw4NDksMTE2NC42NzE5IEM4NjQsMTE2NC42NzE5IDg2NCwxMTM3LjE3OTcgODc5LDExMzcuMTc5NyBMODg5LDExMzcuMTc5NyAiIGZpbGw9Im5vbmUiIHN0eWxlPSJzdHJva2U6IzE4MTgxODtzdHJva2Utd2lkdGg6MS4wOyIvPjxyZWN0IGZpbGw9IiNGMUYxRjEiIGhlaWdodD0iMzQuOTg0NCIgcng9IjEyLjUiIHJ5PSIxMi41IiBzdHlsZT0ic3Ryb2tlOiMxODE4MTg7c3Ryb2tlLXdpZHRoOjEuNTsiIHdpZHRoPSIzNzgiIHg9Ijg4OSIgeT0iMTE3NC42NzE5Ii8+PHRleHQgZmlsbD0iIzAwMDAwMCIgZm9udC1mYW1pbHk9InNhbnMtc2VyaWYiIGZvbnQtc2l6ZT0iMTQiIGxlbmd0aEFkanVzdD0ic3BhY2luZyIgdGV4dExlbmd0aD0iMzU4IiB4PSI4OTkiIHk9IjExOTcuOTA2MyI+Q29jb2sgdW50dWsgZGF0YSB1cnV0IHNlcGVydGkgdGVrcyBhdGF1IHRpbWUgc2VyaWVzPC90ZXh0PjxwYXRoIGQ9Ik04MzksMTE2NC42NzE5IEw4NDksMTE2NC42NzE5IEM4NjQsMTE2NC42NzE5IDg2NCwxMTkyLjE2NDEgODc5LDExOTIuMTY0MSBMODg5LDExOTIuMTY0MSAiIGZpbGw9Im5vbmUiIHN0eWxlPSJzdHJva2U6IzE4MTgxODtzdHJva2Utd2lkdGg6MS4wOyIvPjxwYXRoIGQ9Ik03NDgsMTEzNy4xNzk3IEw3NTgsMTEzNy4xNzk3IEM3NzMsMTEzNy4xNzk3IDc3MywxMTY0LjY3MTkgNzg4LDExNjQuNjcxOSBMNzk4LDExNjQuNjcxOSAiIGZpbGw9Im5vbmUiIHN0eWxlPSJzdHJva2U6IzE4MTgxODtzdHJva2Utd2lkdGg6MS4wOyIvPjxwYXRoIGQ9Ik02MTUsMTE2NC42NzE5IEw2MjUsMTE2NC42NzE5IEM2NDAsMTE2NC42NzE5IDY0MCwxMTM3LjE3OTcgNjU1LDExMzcuMTc5NyBMNjY1LDExMzcuMTc5NyAiIGZpbGw9Im5vbmUiIHN0eWxlPSJzdHJva2U6IzE4MTgxODtzdHJva2Utd2lkdGg6MS4wOyIvPjxyZWN0IGZpbGw9IiNGMUYxRjEiIGhlaWdodD0iMzQuOTg0NCIgcng9IjEyLjUiIHJ5PSIxMi41IiBzdHlsZT0ic3Ryb2tlOiMxODE4MTg7c3Ryb2tlLXdpZHRoOjEuNTsiIHdpZHRoPSIxNjciIHg9IjY2NSIgeT0iMTIyOS42NTYzIi8+PHRleHQgZmlsbD0iIzAwMDAwMCIgZm9udC1mYW1pbHk9InNhbnMtc2VyaWYiIGZvbnQtc2l6ZT0iMTQiIGxlbmd0aEFkanVzdD0ic3BhY2luZyIgdGV4dExlbmd0aD0iMTQ3IiB4PSI2NzUiIHk9IjEyNTIuODkwNiI+S2FwYW4gTWVuZ2d1bmFrYW4gUk5OPC90ZXh0PjxyZWN0IGZpbGw9IiNGMUYxRjEiIGhlaWdodD0iMzQuOTg0NCIgcng9IjEyLjUiIHJ5PSIxMi41IiBzdHlsZT0ic3Ryb2tlOiMxODE4MTg7c3Ryb2tlLXdpZHRoOjEuNTsiIHdpZHRoPSI3MzAiIHg9Ijg4MiIgeT0iMTIyOS42NTYzIi8+PHRleHQgZmlsbD0iIzAwMDAwMCIgZm9udC1mYW1pbHk9InNhbnMtc2VyaWYiIGZvbnQtc2l6ZT0iMTQiIGxlbmd0aEFkanVzdD0ic3BhY2luZyIgdGV4dExlbmd0aD0iNzEwIiB4PSI4OTIiIHk9IjEyNTIuODkwNiI+U2FhdCYjMjI3ODg7JiMyOTcwMjsgc2VxdWVudGlhbCBkYXRhIHNlcGVydGkgcGVtcm9zZXNhbiBiYWhhc2EgYWxhbWksIHBlbmdlbmFsYW4gc3VhcmEsIGF0YXUgcHJlZGlrc2kgdGltZSBzZXJpZXM8L3RleHQ+PHBhdGggZD0iTTgzMiwxMjQ3LjE0ODQgTDg0MiwxMjQ3LjE0ODQgQzg1NywxMjQ3LjE0ODQgODU3LDEyNDcuMTQ4NCA4NzIsMTI0Ny4xNDg0IEw4ODIsMTI0Ny4xNDg0ICIgZmlsbD0ibm9uZSIgc3R5bGU9InN0cm9rZTojMTgxODE4O3N0cm9rZS13aWR0aDoxLjA7Ii8+PHBhdGggZD0iTTYxNSwxMTY0LjY3MTkgTDYyNSwxMTY0LjY3MTkgQzY0MCwxMTY0LjY3MTkgNjQwLDEyNDcuMTQ4NCA2NTUsMTI0Ny4xNDg0IEw2NjUsMTI0Ny4xNDg0ICIgZmlsbD0ibm9uZSIgc3R5bGU9InN0cm9rZTojMTgxODE4O3N0cm9rZS13aWR0aDoxLjA7Ii8+PHBhdGggZD0iTTcyLDc3OS43ODEzIEw4Miw3NzkuNzgxMyBDOTcsNzc5Ljc4MTMgOTcsMTE2NC42NzE5IDExMiwxMTY0LjY3MTkgTDEyMiwxMTY0LjY3MTkgIiBmaWxsPSJub25lIiBzdHlsZT0ic3Ryb2tlOiMxODE4MTg7c3Ryb2tlLXdpZHRoOjEuMDsiLz48cmVjdCBmaWxsPSIjRjFGMUYxIiBoZWlnaHQ9IjM0Ljk4NDQiIHJ4PSIxMi41IiByeT0iMTIuNSIgc3R5bGU9InN0cm9rZTojMTgxODE4O3N0cm9rZS13aWR0aDoxLjU7IiB3aWR0aD0iNDM1IiB4PSIxMjIiIHk9IjEzOTQuNjA5NCIvPjx0ZXh0IGZpbGw9IiMwMDAwMDAiIGZvbnQtZmFtaWx5PSJzYW5zLXNlcmlmIiBmb250LXNpemU9IjE0IiBsZW5ndGhBZGp1c3Q9InNwYWNpbmciIHRleHRMZW5ndGg9IjQxNSIgeD0iMTMyIiB5PSIxNDE3Ljg0MzgiPkFyc2l0ZWt0dXIgSmFyaW5nYW4gU2FyYWYgVGlydWFuIHVudHVrIFByZWRpa3NpIEhhcmdhIFJ1bWFoPC90ZXh0PjxyZWN0IGZpbGw9IiNGMUYxRjEiIGhlaWdodD0iMzQuOTg0NCIgcng9IjEyLjUiIHJ5PSIxMi41IiBzdHlsZT0ic3Ryb2tlOiMxODE4MTg7c3Ryb2tlLXdpZHRoOjEuNTsiIHdpZHRoPSIxNDYiIHg9IjYwNyIgeT0iMTI4NC42NDA2Ii8+PHRleHQgZmlsbD0iIzAwMDAwMCIgZm9udC1mYW1pbHk9InNhbnMtc2VyaWYiIGZvbnQtc2l6ZT0iMTQiIGxlbmd0aEFkanVzdD0ic3BhY2luZyIgdGV4dExlbmd0aD0iMTI2IiB4PSI2MTciIHk9IjEzMDcuODc1Ij5BcnNpdGVrdHVyIFBpbGloYW48L3RleHQ+PHJlY3QgZmlsbD0iI0YxRjFGMSIgaGVpZ2h0PSIzNC45ODQ0IiByeD0iMTIuNSIgcnk9IjEyLjUiIHN0eWxlPSJzdHJva2U6IzE4MTgxODtzdHJva2Utd2lkdGg6MS41OyIgd2lkdGg9IjQyMyIgeD0iODAzIiB5PSIxMjg0LjY0MDYiLz48dGV4dCBmaWxsPSIjMDAwMDAwIiBmb250LWZhbWlseT0ic2Fucy1zZXJpZiIgZm9udC1zaXplPSIxNCIgbGVuZ3RoQWRqdXN0PSJzcGFjaW5nIiB0ZXh0TGVuZ3RoPSI0MDMiIHg9IjgxMyIgeT0iMTMwNy44NzUiPkZlZWRmb3J3YXJkIE5ldXJhbCBOZXR3b3JrIChNdWx0aS1MYXllciBQZXJjZXB0cm9uIC0gTUxQKTwvdGV4dD48cmVjdCBmaWxsPSIjRjFGMUYxIiBoZWlnaHQ9IjM0Ljk4NDQiIHJ4PSIxMi41IiByeT0iMTIuNSIgc3R5bGU9InN0cm9rZTojMTgxODE4O3N0cm9rZS13aWR0aDoxLjU7IiB3aWR0aD0iMzY0IiB4PSIxMjc2IiB5PSIxMjg0LjY0MDYiLz48dGV4dCBmaWxsPSIjMDAwMDAwIiBmb250LWZhbWlseT0ic2Fucy1zZXJpZiIgZm9udC1zaXplPSIxNCIgbGVuZ3RoQWRqdXN0PSJzcGFjaW5nIiB0ZXh0TGVuZ3RoPSIzNDQiIHg9IjEyODYiIHk9IjEzMDcuODc1Ij5TZXN1YWkgdW50dWsgbWFzYWxhaCByZWdyZXNpIGRlbmdhbiBkYXRhIG5vbi11cnV0PC90ZXh0PjxwYXRoIGQ9Ik0xMjI2LDEzMDIuMTMyOCBMMTIzNiwxMzAyLjEzMjggQzEyNTEsMTMwMi4xMzI4IDEyNTEsMTMwMi4xMzI4IDEyNjYsMTMwMi4xMzI4IEwxMjc2LDEzMDIuMTMyOCAiIGZpbGw9Im5vbmUiIHN0eWxlPSJzdHJva2U6IzE4MTgxODtzdHJva2Utd2lkdGg6MS4wOyIvPjxwYXRoIGQ9Ik03NTMsMTMwMi4xMzI4IEw3NjMsMTMwMi4xMzI4IEM3NzgsMTMwMi4xMzI4IDc3OCwxMzAyLjEzMjggNzkzLDEzMDIuMTMyOCBMODAzLDEzMDIuMTMyOCAiIGZpbGw9Im5vbmUiIHN0eWxlPSJzdHJva2U6IzE4MTgxODtzdHJva2Utd2lkdGg6MS4wOyIvPjxwYXRoIGQ9Ik01NTcsMTQxMi4xMDE2IEw1NjcsMTQxMi4xMDE2IEM1ODIsMTQxMi4xMDE2IDU4MiwxMzAyLjEzMjggNTk3LDEzMDIuMTMyOCBMNjA3LDEzMDIuMTMyOCAiIGZpbGw9Im5vbmUiIHN0eWxlPSJzdHJva2U6IzE4MTgxODtzdHJva2Utd2lkdGg6MS4wOyIvPjxyZWN0IGZpbGw9IiNGMUYxRjEiIGhlaWdodD0iMzQuOTg0NCIgcng9IjEyLjUiIHJ5PSIxMi41IiBzdHlsZT0ic3Ryb2tlOiMxODE4MTg7c3Ryb2tlLXdpZHRoOjEuNTsiIHdpZHRoPSIxOTYiIHg9IjYwNyIgeT0iMTMzOS42MjUiLz48dGV4dCBmaWxsPSIjMDAwMDAwIiBmb250LWZhbWlseT0ic2Fucy1zZXJpZiIgZm9udC1zaXplPSIxNCIgbGVuZ3RoQWRqdXN0PSJzcGFjaW5nIiB0ZXh0TGVuZ3RoPSIxNzYiIHg9IjYxNyIgeT0iMTM2Mi44NTk0Ij5BbGFzYW4gTWVtaWxpaCBBcnNpdGVrdHVyPC90ZXh0PjxyZWN0IGZpbGw9IiNGMUYxRjEiIGhlaWdodD0iMzQuOTg0NCIgcng9IjEyLjUiIHJ5PSIxMi41IiBzdHlsZT0ic3Ryb2tlOiMxODE4MTg7c3Ryb2tlLXdpZHRoOjEuNTsiIHdpZHRoPSI1NjMiIHg9Ijg1MyIgeT0iMTMzOS42MjUiLz48dGV4dCBmaWxsPSIjMDAwMDAwIiBmb250LWZhbWlseT0ic2Fucy1zZXJpZiIgZm9udC1zaXplPSIxNCIgbGVuZ3RoQWRqdXN0PSJzcGFjaW5nIiB0ZXh0TGVuZ3RoPSI1NDMiIHg9Ijg2MyIgeT0iMTM2Mi44NTk0Ij5TaW1wbGljaXR5IGRhbiBlZmVrdGl2aXRhcyBkYWxhbSBtZW5hbmdhbmkgZGF0YSByZWdyZXNpIGRlbmdhbiBmaXR1ciBjYW1wdXJhbjwvdGV4dD48cGF0aCBkPSJNODAzLDEzNTcuMTE3MiBMODEzLDEzNTcuMTE3MiBDODI4LDEzNTcuMTE3MiA4MjgsMTM1Ny4xMTcyIDg0MywxMzU3LjExNzIgTDg1MywxMzU3LjExNzIgIiBmaWxsPSJub25lIiBzdHlsZT0ic3Ryb2tlOiMxODE4MTg7c3Ryb2tlLXdpZHRoOjEuMDsiLz48cGF0aCBkPSJNNTU3LDE0MTIuMTAxNiBMNTY3LDE0MTIuMTAxNiBDNTgyLDE0MTIuMTAxNiA1ODIsMTM1Ny4xMTcyIDU5NywxMzU3LjExNzIgTDYwNywxMzU3LjExNzIgIiBmaWxsPSJub25lIiBzdHlsZT0ic3Ryb2tlOiMxODE4MTg7c3Ryb2tlLXdpZHRoOjEuMDsiLz48cmVjdCBmaWxsPSIjRjFGMUYxIiBoZWlnaHQ9IjM0Ljk4NDQiIHJ4PSIxMi41IiByeT0iMTIuNSIgc3R5bGU9InN0cm9rZTojMTgxODE4O3N0cm9rZS13aWR0aDoxLjU7IiB3aWR0aD0iOTciIHg9IjYwNyIgeT0iMTM5NC42MDk0Ii8+PHRleHQgZmlsbD0iIzAwMDAwMCIgZm9udC1mYW1pbHk9InNhbnMtc2VyaWYiIGZvbnQtc2l6ZT0iMTQiIGxlbmd0aEFkanVzdD0ic3BhY2luZyIgdGV4dExlbmd0aD0iNzciIHg9IjYxNyIgeT0iMTQxNy44NDM4Ij5GaXR1ciBJbnB1dDwvdGV4dD48cmVjdCBmaWxsPSIjRjFGMUYxIiBoZWlnaHQ9IjM0Ljk4NDQiIHJ4PSIxMi41IiByeT0iMTIuNSIgc3R5bGU9InN0cm9rZTojMTgxODE4O3N0cm9rZS13aWR0aDoxLjU7IiB3aWR0aD0iNjk2IiB4PSI3NTQiIHk9IjEzOTQuNjA5NCIvPjx0ZXh0IGZpbGw9IiMwMDAwMDAiIGZvbnQtZmFtaWx5PSJzYW5zLXNlcmlmIiBmb250LXNpemU9IjE0IiBsZW5ndGhBZGp1c3Q9InNwYWNpbmciIHRleHRMZW5ndGg9IjY3NiIgeD0iNzY0IiB5PSIxNDE3Ljg0MzgiPkx1YXMgdGFuYWgsIGp1bWxhaCBrYW1hciwgbG9rYXNpLCB1c2lhIHJ1bWFoLCBkYW4gZml0dXIgbGFpbiB5YW5nIGJlcmh1YnVuZ2FuIGRlbmdhbiBoYXJnYSBydW1haDwvdGV4dD48cGF0aCBkPSJNNzA0LDE0MTIuMTAxNiBMNzE0LDE0MTIuMTAxNiBDNzI5LDE0MTIuMTAxNiA3MjksMTQxMi4xMDE2IDc0NCwxNDEyLjEwMTYgTDc1NCwxNDEyLjEwMTYgIiBmaWxsPSJub25lIiBzdHlsZT0ic3Ryb2tlOiMxODE4MTg7c3Ryb2tlLXdpZHRoOjEuMDsiLz48cGF0aCBkPSJNNTU3LDE0MTIuMTAxNiBMNTY3LDE0MTIuMTAxNiBDNTgyLDE0MTIuMTAxNiA1ODIsMTQxMi4xMDE2IDU5NywxNDEyLjEwMTYgTDYwNywxNDEyLjEwMTYgIiBmaWxsPSJub25lIiBzdHlsZT0ic3Ryb2tlOiMxODE4MTg7c3Ryb2tlLXdpZHRoOjEuMDsiLz48cmVjdCBmaWxsPSIjRjFGMUYxIiBoZWlnaHQ9IjM0Ljk4NDQiIHJ4PSIxMi41IiByeT0iMTIuNSIgc3R5bGU9InN0cm9rZTojMTgxODE4O3N0cm9rZS13aWR0aDoxLjU7IiB3aWR0aD0iMTQwIiB4PSI2MDciIHk9IjE0NzcuMDg1OSIvPjx0ZXh0IGZpbGw9IiMwMDAwMDAiIGZvbnQtZmFtaWx5PSJzYW5zLXNlcmlmIiBmb250LXNpemU9IjE0IiBsZW5ndGhBZGp1c3Q9InNwYWNpbmciIHRleHRMZW5ndGg9IjEyMCIgeD0iNjE3IiB5PSIxNTAwLjMyMDMiPlBlcnRpbWJhbmdhbiBMYWluPC90ZXh0PjxyZWN0IGZpbGw9IiNGMUYxRjEiIGhlaWdodD0iMzQuOTg0NCIgcng9IjEyLjUiIHJ5PSIxMi41IiBzdHlsZT0ic3Ryb2tlOiMxODE4MTg7c3Ryb2tlLXdpZHRoOjEuNTsiIHdpZHRoPSI1MzkiIHg9Ijc5NyIgeT0iMTQ0OS41OTM4Ii8+PHRleHQgZmlsbD0iIzAwMDAwMCIgZm9udC1mYW1pbHk9InNhbnMtc2VyaWYiIGZvbnQtc2l6ZT0iMTQiIGxlbmd0aEFkanVzdD0ic3BhY2luZyIgdGV4dExlbmd0aD0iNTE5IiB4PSI4MDciIHk9IjE0NzIuODI4MSI+TWVuZ2d1bmFrYW4gdGVrbmlrIHJlZ3VsYXJpc2FzaSBzZXBlcnRpIGRyb3BvdXQgdW50dWsgbWVuY2VnYWggb3ZlcmZpdHRpbmc8L3RleHQ+PHBhdGggZD0iTTc0NywxNDk0LjU3ODEgTDc1NywxNDk0LjU3ODEgQzc3MiwxNDk0LjU3ODEgNzcyLDE0NjcuMDg1OSA3ODcsMTQ2Ny4wODU5IEw3OTcsMTQ2Ny4wODU5ICIgZmlsbD0ibm9uZSIgc3R5bGU9InN0cm9rZTojMTgxODE4O3N0cm9rZS13aWR0aDoxLjA7Ii8+PHJlY3QgZmlsbD0iI0YxRjFGMSIgaGVpZ2h0PSIzNC45ODQ0IiByeD0iMTIuNSIgcnk9IjEyLjUiIHN0eWxlPSJzdHJva2U6IzE4MTgxODtzdHJva2Utd2lkdGg6MS41OyIgd2lkdGg9IjcyMyIgeD0iNzk3IiB5PSIxNTA0LjU3ODEiLz48dGV4dCBmaWxsPSIjMDAwMDAwIiBmb250LWZhbWlseT0ic2Fucy1zZXJpZiIgZm9udC1zaXplPSIxNCIgbGVuZ3RoQWRqdXN0PSJzcGFjaW5nIiB0ZXh0TGVuZ3RoPSI3MDMiIHg9IjgwNyIgeT0iMTUyNy44MTI1Ij5TdHJ1a3R1ciBqYXJpbmdhbiBkZW5nYW4gYmViZXJhcGEgbGFwaXNhbiB0ZXJzZW1idW55aSB1bnR1ayBtZW5hbmdrYXAgaW50ZXJha3NpIGtvbXBsZWtzIGFudGFyIGZpdHVyPC90ZXh0PjxwYXRoIGQ9Ik03NDcsMTQ5NC41NzgxIEw3NTcsMTQ5NC41NzgxIEM3NzIsMTQ5NC41NzgxIDc3MiwxNTIyLjA3MDMgNzg3LDE1MjIuMDcwMyBMNzk3LDE1MjIuMDcwMyAiIGZpbGw9Im5vbmUiIHN0eWxlPSJzdHJva2U6IzE4MTgxODtzdHJva2Utd2lkdGg6MS4wOyIvPjxwYXRoIGQ9Ik01NTcsMTQxMi4xMDE2IEw1NjcsMTQxMi4xMDE2IEM1ODIsMTQxMi4xMDE2IDU4MiwxNDk0LjU3ODEgNTk3LDE0OTQuNTc4MSBMNjA3LDE0OTQuNTc4MSAiIGZpbGw9Im5vbmUiIHN0eWxlPSJzdHJva2U6IzE4MTgxODtzdHJva2Utd2lkdGg6MS4wOyIvPjxwYXRoIGQ9Ik03Miw3NzkuNzgxMyBMODIsNzc5Ljc4MTMgQzk3LDc3OS43ODEzIDk3LDE0MTIuMTAxNiAxMTIsMTQxMi4xMDE2IEwxMjIsMTQxMi4xMDE2ICIgZmlsbD0ibm9uZSIgc3R5bGU9InN0cm9rZTojMTgxODE4O3N0cm9rZS13aWR0aDoxLjA7Ii8+PCEtLVNSQz1bYkxSMUpZRDc0QnR4QS1lODJBelc1d3FZSmtqYk9SRFc2bWkzS2V2Ykp6bEpwNHB0ZkFTUnVacjdFVVNaeWNqSFZZRWxVY1FDNktQYVd4SWljRXdnVmxOZ3JVbC1MN2JzbGowY0FSV1M3RDBsOElKTTMwV18xcEhKUmc0SVBhRFprek9QcXFOdV9kcjNqck44a0IzVUtnQkM2Z2lKdk1zWXc5alBBUVRDZlBqek96UjZSM1djd29KU1Zna19ScEUtIC01d2xOR0lwSGlmQ2lMY2xoSFNxRGxXb1UyZ2lHT1pmWVZjWUxhMldMeTJDcTBRYk95ejMtS0xVRVEtQjFIOXNTNG91SURaZTdxRW5ZYUs2dXFENnNXWVdQOGxqRnA0TG1CR0VYWkU0NUZwUjQxcVdHMGxuWnlKdzNoMXZNMmxKbnl2Tk5lSE9OTHZ0ZzBSTExCb2dHSFZpNVZ4ZmgyVi1WQUtoaEduYmpXMWk4RGxmcmZLQTBaOTdmbHU2N1QxcnRPY0t5cjM1eVpEaGwzUVhpLXRDQmN0TUtDTGJOYkVtMFBOV2VMVzQ3ckJYbVFjZ2pBUVk4WTNSMm5tdnlBVGxtODJrZ1dyQlJxc2gyZXJZV0FYYTd5eldnR3Rqb3lFSmdoV0wtRmFaV0NsMmJKUkFGSjFEZUVFU3ZsVUoxa25MWmpNY1BSU2dzcUs1cUprVHFHdDBGUnVJejJXQlJmVkN2dktSVkJQS0VmTmUzNGFOb2gwSkdRT0NpRUdYaE5veHNYRC1nbkZFUUJkM1BvQWJBS3ktaGJJZ0x6V3BTQWp4NHl3U0JRcTNhWXNhcWJSUXdyTlRkdVlsQnFuOWR6VnE0NE43VVFNUWs0VDVZS3hYOS1ucTF5SURNZEFVcXp2U0YwOHhmS054UnE5Z2E1R2dtZTJOckEwSWxHTlJBRnJfbTNIZ3BNXzJsM1dVcGZWTWdQdnFGeEUzbEZHSWFpQVg0WWtxMlJESF8ydU1zMUZ0Y05OUmhhb3JCUDlmS0tkV05PamlZQmUtNnV4a3BjWWwyVGFIdUtBNHNhVlFvMmI2SVJKVzlxdTl5ZGphb1RFcFNtQkEwWlJXejg4bnpONWNIRlFPNHJybjc0S0MyYlVsUmU2SG1NTjFEOWZFd0tBZlA2TlQ0eGlhYmV4VTFXVnB6cEhMYTd3RV9fb0pUSGRqdEtvZC1wem0xTklJelhjZU1CVnU5a1ZRclVKTmpma2Z6YVIwXzlTQ0F4SGJiejdmajlVOUdpRUNUOG5lLWVDMzdkWkRJMHFhWEwwa3dpajNxTXRKUXNVSklRSldXQURJZkxtbmNFa2lnY3FUenV0MlB3Vkwyc1UzRnZkT2FGT2t3MEE1ekpGeGxfX3dfUHlfX3EzeWhxNDQzTmhaTVVxbmZJZ1NoU0pOcUZ3S0FvUkVrVDI3TTMydURyV1NsMGZldE00RFBaaXpOTEdZOHVvU29acGFTR2M2ZXFoZFk1cDFVUG44Zkl2cnJjUjBIODJpY20xXzdrb0FTUGpiMWVSSkx6dFViS3pOQzlFR1VwcVN5cU92S1NqSWJUdlBHcUVRWjZUem9meWhyQVJSemc3dzcwRldyNWU2aV9NN0k5VW5QWVpqc0dLQWNTU0VZMTNJN1RwVDlrVzJyelBJLXFyS2tyZlhLc3JXLTFqU1lzcFlJRWx3Z0N4bkFvcktCNk5RdDB1TnUyNGtWM0ZUOXlDMVpONGxZUHV2RlFJN0s0WERrRmhPN0tBaXVXSTc1MmdEV3VKdm1tWWdGWUo3ZXdrclJmVTZ2ZE5HdTRYWmpyb2RNeEZqU3FYVVVlV1ZsM1FDTGZ6V255M0JLMV9VMUd2czRHVWFiYzRZbFd0clJtVGYyUWpEb0p1ZzFzcFltcnJNbEdqSDkwLWpyQlBzM2wwaWV5b2Joa0FuaGZBTldqZGV2X0cwZEU3RXIwUWhCNkFLSHFtVUhxd0NnWVBheTRkWFJUa3lSbVNwWjhBX2N1bTljNzBGNnBmLXpfeGVfU2N4YXhxdjdXZ1pxajdISHBlLUVWdG11Vkp6NE5zVHQ5OGl4bXlrTVVtSzlzRFdKa2FRU3ROdnZRaHpHRVZjS0tFWVdFRzdiX1VKdm1xVkp1UVZqT1QyN1N3Wi15YTBacTI2bDE2bmowYkFGZ014c3VsWEp1Q25RV2N5SGN2YjFjU01VVHE2UV9EXzBHMDBdLS0+PC9nPjwvc3ZnPg==;" vertex="1" parent="1">
            <mxGeometry x="860" y="-460" width="1652" height="1561" as="geometry" />
          </mxCell>
        </UserObject>
      </root>
    </mxGraphModel>
  </diagram>
</mxfile>
